<svg xmlns="http://www.w3.org/2000/svg" xmlns:xlink="http://www.w3.org/1999/xlink" width="553" zoomAndPan="magnify" viewBox="0 0 414.75 275.999989" height="368" preserveAspectRatio="xMidYMid meet" version="1.0"><defs><clipPath id="5f90925d65"><path d="M 17 0.0820312 L 397.460938 0.0820312 L 397.460938 275.914062 L 17 275.914062 Z M 17 0.0820312 " clip-rule="nonzero"/></clipPath><clipPath id="5a2e699e75"><path d="M 167.984375 214.320312 L 359.316406 214.320312 L 359.316406 231.285156 L 167.984375 231.285156 Z M 167.984375 214.320312 " clip-rule="nonzero"/></clipPath><clipPath id="f2efcb196c"><path d="M 55 149.585938 L 292.878906 149.585938 L 292.878906 228.941406 L 55 228.941406 Z M 55 149.585938 " clip-rule="nonzero"/></clipPath><clipPath id="fc52505d9d"><path d="M 307 179 L 345 179 L 345 201.292969 L 307 201.292969 Z M 307 179 " clip-rule="nonzero"/></clipPath><clipPath id="46eb4cdd86"><path d="M 299.59375 155.195312 L 352.601562 155.195312 L 352.601562 179 L 299.59375 179 Z M 299.59375 155.195312 " clip-rule="nonzero"/></clipPath><clipPath id="fc8b9fa333"><path d="M 292.878906 172.6875 L 324 172.6875 L 324 211.191406 L 292.878906 211.191406 Z M 292.878906 172.6875 " clip-rule="nonzero"/></clipPath><clipPath id="47ef6b1ce4"><path d="M 328 172.6875 L 359.316406 172.6875 L 359.316406 211.191406 L 328 211.191406 Z M 328 172.6875 " clip-rule="nonzero"/></clipPath></defs><g clip-path="url(#5f90925d65)"><path fill="#295a88" d="M 372.046875 275.8125 L 372.046875 129.671875 L 207.15625 29.414062 L 42.355469 129.671875 L 42.355469 275.8125 L 17.179688 275.8125 L 17.179688 115.5625 L 207.15625 0.0429688 L 397.3125 115.5625 L 397.3125 275.8125 Z M 372.046875 275.8125 " fill-opacity="1" fill-rule="nonzero"/></g><g clip-path="url(#5a2e699e75)"><path fill="#295a88" d="M 179.734375 223.566406 C 179.355469 223.566406 178.925781 223.558594 178.4375 223.539062 C 177.945312 223.519531 177.449219 223.484375 176.949219 223.4375 C 176.96875 223.585938 176.984375 223.738281 176.992188 223.890625 C 177.003906 224.039062 177.007812 224.183594 177.007812 224.332031 C 177.007812 224.984375 176.910156 225.582031 176.714844 226.121094 C 176.519531 226.660156 176.226562 227.117188 175.835938 227.5 C 175.441406 227.882812 174.957031 228.179688 174.375 228.390625 C 173.785156 228.601562 173.113281 228.710938 172.347656 228.710938 C 171.773438 228.710938 171.121094 228.644531 170.398438 228.519531 C 169.683594 228.390625 168.875 228.160156 167.984375 227.828125 L 168.277344 227.554688 C 169.039062 227.832031 169.761719 228.039062 170.445312 228.171875 C 171.128906 228.304688 171.761719 228.371094 172.347656 228.371094 C 172.988281 228.371094 173.511719 228.304688 173.921875 228.167969 C 174.332031 228.03125 174.660156 227.851562 174.902344 227.628906 C 175.140625 227.402344 175.308594 227.148438 175.398438 226.867188 C 175.492188 226.585938 175.539062 226.292969 175.539062 225.996094 C 175.539062 225.589844 175.492188 225.148438 175.398438 224.675781 C 175.308594 224.207031 175.222656 223.714844 175.140625 223.191406 C 174.691406 223.101562 174.324219 222.992188 174.042969 222.867188 C 173.757812 222.742188 173.613281 222.597656 173.613281 222.433594 C 173.613281 222.269531 173.746094 222.128906 174.003906 222.007812 C 174.265625 221.890625 174.605469 221.800781 175.027344 221.734375 C 175.027344 221.234375 175.089844 220.75 175.21875 220.269531 C 175.34375 219.792969 175.5 219.34375 175.691406 218.925781 C 175.886719 218.5 176.09375 218.109375 176.308594 217.75 C 176.527344 217.390625 176.738281 217.082031 176.933594 216.824219 C 177.132812 216.566406 177.300781 216.367188 177.429688 216.222656 C 177.558594 216.074219 177.628906 216.003906 177.640625 216.003906 L 178.160156 216.148438 C 178.160156 216.15625 178.078125 216.273438 177.917969 216.496094 C 177.761719 216.71875 177.59375 217.035156 177.40625 217.4375 C 177.222656 217.84375 177.050781 218.328125 176.894531 218.898438 C 176.734375 219.464844 176.65625 220.09375 176.65625 220.785156 C 176.65625 220.921875 176.65625 221.0625 176.65625 221.210938 C 176.65625 221.359375 176.664062 221.503906 176.683594 221.648438 C 177.773438 221.679688 178.695312 221.824219 179.453125 222.082031 C 180.21875 222.339844 180.878906 222.703125 181.433594 223.160156 C 182.277344 223.054688 183.085938 222.875 183.863281 222.628906 C 184.648438 222.375 185.335938 222.054688 185.925781 221.667969 C 186.519531 221.277344 186.992188 220.828125 187.351562 220.3125 C 187.710938 219.796875 187.890625 219.226562 187.890625 218.601562 C 187.890625 218.101562 187.765625 217.65625 187.515625 217.265625 C 187.265625 216.878906 186.929688 216.535156 186.515625 216.242188 C 186.097656 215.949219 185.617188 215.703125 185.078125 215.5 C 184.53125 215.300781 183.96875 215.136719 183.390625 215.011719 C 182.8125 214.886719 182.238281 214.796875 181.660156 214.742188 C 181.085938 214.6875 180.5625 214.660156 180.078125 214.660156 C 178.730469 214.660156 177.511719 214.722656 176.429688 214.84375 C 175.34375 214.964844 174.386719 215.117188 173.554688 215.300781 C 172.71875 215.488281 172.003906 215.6875 171.402344 215.902344 C 170.796875 216.113281 170.300781 216.316406 169.910156 216.5 C 169.519531 216.683594 169.230469 216.839844 169.046875 216.96875 C 168.859375 217.09375 168.765625 217.160156 168.765625 217.160156 L 168.277344 216.96875 C 168.308594 216.949219 168.425781 216.871094 168.632812 216.734375 C 168.835938 216.59375 169.144531 216.425781 169.550781 216.234375 C 169.957031 216.042969 170.46875 215.832031 171.09375 215.601562 C 171.714844 215.378906 172.460938 215.171875 173.328125 214.984375 C 174.195312 214.796875 175.1875 214.636719 176.300781 214.507812 C 177.417969 214.382812 178.679688 214.320312 180.078125 214.320312 C 180.886719 214.320312 181.6875 214.355469 182.480469 214.429688 C 183.273438 214.5 184.027344 214.609375 184.746094 214.757812 C 185.457031 214.90625 186.121094 215.097656 186.734375 215.328125 C 187.34375 215.558594 187.875 215.832031 188.320312 216.144531 C 188.765625 216.460938 189.117188 216.824219 189.375 217.234375 C 189.628906 217.640625 189.757812 218.097656 189.757812 218.601562 C 189.757812 219.324219 189.535156 219.964844 189.089844 220.523438 C 188.640625 221.082031 188.046875 221.5625 187.304688 221.964844 C 186.566406 222.367188 185.71875 222.695312 184.761719 222.949219 C 183.808594 223.199219 182.820312 223.378906 181.804688 223.480469 C 182.144531 223.792969 182.441406 224.140625 182.699219 224.519531 C 183.003906 224.953125 183.28125 225.394531 183.527344 225.855469 C 183.777344 226.316406 184.039062 226.765625 184.316406 227.207031 C 184.59375 227.644531 184.894531 228.0625 185.21875 228.457031 C 185.546875 228.851562 185.933594 229.195312 186.378906 229.492188 C 186.824219 229.792969 187.351562 230.027344 187.953125 230.203125 C 188.554688 230.375 189.273438 230.460938 190.105469 230.460938 C 190.695312 230.460938 191.300781 230.382812 191.910156 230.230469 C 192.523438 230.078125 193.148438 229.832031 193.785156 229.488281 L 194.152344 229.730469 C 193.789062 229.9375 193.414062 230.136719 193.03125 230.328125 C 192.652344 230.515625 192.253906 230.679688 191.835938 230.820312 C 191.417969 230.964844 190.980469 231.074219 190.519531 231.160156 C 190.058594 231.246094 189.5625 231.289062 189.035156 231.289062 C 188.242188 231.289062 187.554688 231.222656 186.964844 231.09375 C 186.382812 230.960938 185.878906 230.78125 185.445312 230.546875 C 185.015625 230.3125 184.652344 230.035156 184.363281 229.714844 C 184.066406 229.398438 183.808594 229.050781 183.59375 228.679688 C 183.378906 228.304688 183.191406 227.90625 183.03125 227.488281 C 182.867188 227.070312 182.710938 226.644531 182.554688 226.214844 C 182.355469 225.6875 182.136719 225.199219 181.902344 224.75 C 181.660156 224.296875 181.359375 223.894531 180.996094 223.535156 C 180.78125 223.550781 180.570312 223.558594 180.359375 223.5625 C 180.148438 223.5625 179.9375 223.566406 179.734375 223.566406 Z M 176.746094 221.988281 C 176.765625 222.171875 176.792969 222.359375 176.828125 222.554688 C 176.863281 222.75 176.894531 222.9375 176.925781 223.125 C 177.296875 223.171875 177.722656 223.199219 178.199219 223.21875 C 178.679688 223.238281 179.207031 223.246094 179.785156 223.246094 C 179.925781 223.246094 180.070312 223.246094 180.214844 223.246094 C 180.359375 223.246094 180.507812 223.238281 180.660156 223.226562 C 180.207031 222.863281 179.671875 222.574219 179.046875 222.355469 C 178.425781 222.140625 177.65625 222.015625 176.746094 221.988281 Z M 175.082031 222.820312 C 175.0625 222.703125 175.046875 222.582031 175.042969 222.457031 C 175.035156 222.335938 175.027344 222.210938 175.027344 222.089844 C 174.773438 222.125 174.566406 222.171875 174.410156 222.230469 C 174.261719 222.289062 174.1875 222.347656 174.1875 222.414062 C 174.1875 222.457031 174.257812 222.519531 174.402344 222.59375 C 174.542969 222.664062 174.769531 222.738281 175.082031 222.820312 Z M 195.425781 227.234375 C 194.929688 227.234375 194.449219 227.179688 193.988281 227.074219 C 193.527344 226.96875 193.121094 226.8125 192.777344 226.601562 C 192.429688 226.390625 192.15625 226.125 191.949219 225.804688 C 191.742188 225.488281 191.640625 225.117188 191.640625 224.6875 C 191.640625 224.167969 191.765625 223.703125 192.015625 223.292969 C 192.273438 222.886719 192.597656 222.539062 192.996094 222.257812 C 193.390625 221.980469 193.835938 221.765625 194.328125 221.617188 C 194.820312 221.46875 195.296875 221.394531 195.765625 221.394531 C 196.371094 221.394531 196.855469 221.515625 197.21875 221.75 C 197.574219 221.988281 197.75 222.296875 197.75 222.671875 C 197.75 223 197.648438 223.292969 197.441406 223.558594 C 197.238281 223.816406 196.964844 224.042969 196.628906 224.234375 C 196.289062 224.417969 195.898438 224.5625 195.464844 224.667969 C 195.027344 224.773438 194.574219 224.828125 194.109375 224.828125 C 193.882812 224.828125 193.667969 224.820312 193.46875 224.804688 C 193.269531 224.792969 193.085938 224.773438 192.925781 224.757812 C 192.988281 225.117188 193.105469 225.425781 193.28125 225.6875 C 193.457031 225.945312 193.675781 226.160156 193.941406 226.332031 C 194.210938 226.496094 194.503906 226.621094 194.832031 226.703125 C 195.164062 226.785156 195.503906 226.824219 195.855469 226.824219 C 196.296875 226.824219 196.703125 226.761719 197.074219 226.632812 C 197.445312 226.503906 197.789062 226.339844 198.105469 226.136719 C 198.417969 225.929688 198.703125 225.691406 198.964844 225.425781 C 199.222656 225.160156 199.457031 224.890625 199.664062 224.613281 C 199.871094 224.339844 200.050781 224.070312 200.214844 223.804688 C 200.375 223.542969 200.519531 223.308594 200.648438 223.109375 L 201.222656 223.191406 C 201.097656 223.386719 200.945312 223.617188 200.769531 223.890625 C 200.597656 224.160156 200.402344 224.445312 200.175781 224.742188 C 199.949219 225.042969 199.6875 225.339844 199.386719 225.636719 C 199.078125 225.9375 198.734375 226.203125 198.355469 226.4375 C 197.972656 226.671875 197.539062 226.863281 197.050781 227.011719 C 196.570312 227.160156 196.027344 227.234375 195.425781 227.234375 Z M 195.792969 221.734375 C 195.433594 221.734375 195.078125 221.800781 194.734375 221.9375 C 194.382812 222.074219 194.070312 222.261719 193.800781 222.5 C 193.523438 222.734375 193.300781 223.015625 193.128906 223.34375 C 192.960938 223.667969 192.875 224.011719 192.875 224.382812 C 193 224.414062 193.179688 224.4375 193.410156 224.460938 C 193.640625 224.476562 193.921875 224.484375 194.25 224.484375 C 194.601562 224.484375 194.953125 224.441406 195.304688 224.351562 C 195.652344 224.261719 195.964844 224.140625 196.246094 223.980469 C 196.523438 223.820312 196.75 223.628906 196.925781 223.410156 C 197.09375 223.191406 197.179688 222.949219 197.179688 222.691406 C 197.179688 222.5625 197.148438 222.441406 197.089844 222.324219 C 197.027344 222.210938 196.941406 222.109375 196.824219 222.023438 C 196.710938 221.933594 196.566406 221.863281 196.390625 221.8125 C 196.21875 221.761719 196.019531 221.734375 195.792969 221.734375 Z M 202.289062 222.445312 C 202.183594 222.613281 202.078125 222.78125 201.972656 222.941406 C 201.875 223.101562 201.761719 223.265625 201.644531 223.429688 C 201.519531 223.589844 201.371094 223.75 201.207031 223.90625 C 201.039062 224.0625 200.839844 224.21875 200.605469 224.382812 L 200.484375 224.3125 C 200.738281 223.949219 200.964844 223.574219 201.160156 223.191406 C 201.355469 222.8125 201.554688 222.382812 201.75 221.90625 C 201.699219 221.828125 201.65625 221.757812 201.621094 221.703125 C 201.582031 221.644531 201.546875 221.589844 201.515625 221.539062 C 201.484375 221.492188 201.460938 221.4375 201.441406 221.382812 C 201.417969 221.328125 201.410156 221.265625 201.410156 221.195312 C 201.410156 221.105469 201.433594 221 201.476562 220.890625 C 201.523438 220.777344 201.585938 220.671875 201.664062 220.574219 C 201.75 220.472656 201.847656 220.390625 201.960938 220.324219 C 202.066406 220.257812 202.175781 220.222656 202.289062 220.222656 C 202.429688 220.222656 202.542969 220.242188 202.621094 220.28125 C 202.707031 220.320312 202.773438 220.367188 202.824219 220.421875 C 202.875 220.480469 202.90625 220.542969 202.921875 220.605469 C 202.941406 220.671875 202.953125 220.730469 202.953125 220.785156 C 202.953125 220.875 202.933594 220.976562 202.898438 221.089844 C 202.871094 221.203125 202.832031 221.3125 202.789062 221.417969 C 202.742188 221.523438 202.703125 221.621094 202.667969 221.703125 C 202.632812 221.78125 202.613281 221.835938 202.613281 221.859375 C 202.695312 222.011719 202.828125 222.171875 203.019531 222.335938 C 203.210938 222.496094 203.429688 222.660156 203.675781 222.828125 C 203.921875 222.996094 204.179688 223.171875 204.449219 223.355469 C 204.714844 223.539062 204.960938 223.730469 205.179688 223.929688 C 205.402344 224.132812 205.582031 224.351562 205.722656 224.578125 C 205.867188 224.808594 205.941406 225.050781 205.941406 225.304688 C 205.941406 225.667969 205.851562 225.964844 205.667969 226.1875 C 205.488281 226.414062 205.246094 226.585938 204.941406 226.707031 C 205.382812 226.605469 205.796875 226.417969 206.183594 226.152344 C 206.566406 225.890625 206.925781 225.585938 207.257812 225.238281 C 207.585938 224.894531 207.886719 224.535156 208.167969 224.15625 C 208.445312 223.78125 208.691406 223.429688 208.90625 223.109375 L 209.484375 223.191406 C 209.148438 223.695312 208.796875 224.1875 208.425781 224.667969 C 208.054688 225.152344 207.632812 225.582031 207.160156 225.957031 C 206.6875 226.332031 206.15625 226.632812 205.566406 226.867188 C 204.972656 227.101562 204.292969 227.214844 203.523438 227.214844 C 203.320312 227.214844 203.109375 227.207031 202.898438 227.183594 C 202.6875 227.164062 202.484375 227.132812 202.28125 227.085938 C 202.082031 227.046875 201.894531 226.984375 201.71875 226.910156 C 201.542969 226.835938 201.390625 226.746094 201.265625 226.640625 L 201.75 226.449219 C 201.839844 226.53125 201.976562 226.605469 202.164062 226.675781 C 202.347656 226.746094 202.59375 226.78125 202.898438 226.78125 C 203.191406 226.78125 203.445312 226.746094 203.667969 226.671875 C 203.886719 226.597656 204.074219 226.5 204.226562 226.375 C 204.378906 226.25 204.492188 226.105469 204.5625 225.941406 C 204.640625 225.769531 204.675781 225.589844 204.675781 225.402344 C 204.675781 225.007812 204.582031 224.667969 204.390625 224.382812 C 204.199219 224.097656 203.972656 223.847656 203.714844 223.625 C 203.453125 223.402344 203.1875 223.195312 202.914062 223.011719 C 202.648438 222.824219 202.441406 222.636719 202.289062 222.445312 Z M 211.203125 226.449219 C 210.585938 226.449219 210.074219 226.300781 209.667969 226.007812 C 209.261719 225.714844 209.058594 225.265625 209.058594 224.667969 C 209.058594 224.277344 209.191406 223.777344 209.464844 223.164062 C 209.730469 222.554688 210.195312 221.863281 210.863281 221.09375 L 211.40625 221.179688 C 211.351562 221.328125 211.253906 221.535156 211.121094 221.796875 C 210.988281 222.058594 210.855469 222.347656 210.71875 222.667969 C 210.589844 222.992188 210.476562 223.328125 210.382812 223.675781 C 210.28125 224.027344 210.230469 224.363281 210.230469 224.6875 C 210.230469 224.957031 210.265625 225.179688 210.335938 225.351562 C 210.402344 225.523438 210.492188 225.65625 210.605469 225.753906 C 210.71875 225.847656 210.851562 225.914062 211.007812 225.949219 C 211.15625 225.980469 211.320312 225.996094 211.496094 225.996094 C 211.78125 225.996094 212.050781 225.945312 212.300781 225.84375 C 212.558594 225.738281 212.800781 225.601562 213.03125 225.429688 C 213.261719 225.257812 213.476562 225.066406 213.679688 224.855469 C 213.878906 224.644531 214.058594 224.433594 214.21875 224.21875 C 214.386719 224.003906 214.53125 223.800781 214.65625 223.605469 C 214.78125 223.414062 214.886719 223.246094 214.964844 223.109375 L 215.539062 223.191406 C 215.433594 223.367188 215.304688 223.570312 215.160156 223.796875 C 215.019531 224.023438 214.859375 224.261719 214.679688 224.503906 C 214.5 224.746094 214.296875 224.984375 214.070312 225.21875 C 213.84375 225.449219 213.589844 225.65625 213.300781 225.835938 C 213.019531 226.019531 212.703125 226.167969 212.355469 226.28125 C 212.007812 226.394531 211.625 226.449219 211.203125 226.449219 Z M 213.582031 218.359375 C 213.582031 218.5625 213.449219 218.71875 213.1875 218.828125 C 212.921875 218.9375 212.589844 218.992188 212.1875 218.992188 C 211.980469 218.992188 211.789062 218.972656 211.609375 218.933594 C 211.429688 218.898438 211.269531 218.847656 211.132812 218.785156 C 211.003906 218.726562 210.902344 218.65625 210.824219 218.570312 C 210.75 218.484375 210.710938 218.398438 210.710938 218.304688 C 210.710938 218.109375 210.84375 217.949219 211.105469 217.828125 C 211.363281 217.703125 211.667969 217.644531 212.007812 217.644531 C 212.253906 217.644531 212.472656 217.667969 212.667969 217.710938 C 212.867188 217.753906 213.035156 217.8125 213.175781 217.878906 C 213.308594 217.949219 213.414062 218.027344 213.484375 218.109375 C 213.546875 218.195312 213.582031 218.277344 213.582031 218.359375 Z M 212.789062 218.359375 C 212.789062 218.300781 212.746094 218.246094 212.664062 218.195312 C 212.582031 218.148438 212.457031 218.125 212.285156 218.125 C 211.984375 218.125 211.835938 218.191406 211.835938 218.324219 C 211.835938 218.386719 211.878906 218.441406 211.96875 218.484375 C 212.066406 218.527344 212.191406 218.550781 212.347656 218.550781 C 212.496094 218.550781 212.605469 218.53125 212.675781 218.492188 C 212.753906 218.453125 212.789062 218.410156 212.789062 218.359375 Z M 219.933594 221.195312 C 220.363281 221.195312 220.734375 221.230469 221.039062 221.296875 C 221.351562 221.363281 221.605469 221.433594 221.800781 221.503906 C 221.871094 220.742188 221.984375 220.070312 222.136719 219.480469 C 222.292969 218.894531 222.476562 218.382812 222.6875 217.945312 C 222.898438 217.507812 223.125 217.140625 223.371094 216.84375 C 223.617188 216.542969 223.871094 216.304688 224.125 216.125 C 224.375 215.941406 224.621094 215.808594 224.863281 215.730469 C 225.105469 215.652344 225.328125 215.613281 225.53125 215.613281 C 225.972656 215.613281 226.308594 215.722656 226.542969 215.945312 C 226.773438 216.164062 226.886719 216.488281 226.886719 216.914062 C 226.886719 217.144531 226.84375 217.433594 226.757812 217.78125 C 226.679688 218.132812 226.554688 218.519531 226.390625 218.949219 C 226.230469 219.382812 226.035156 219.847656 225.804688 220.339844 C 225.574219 220.828125 225.308594 221.324219 225.011719 221.824219 C 224.710938 222.320312 224.386719 222.8125 224.035156 223.300781 C 223.683594 223.785156 223.300781 224.242188 222.890625 224.667969 C 222.925781 225 222.984375 225.265625 223.070312 225.46875 C 223.15625 225.671875 223.261719 225.832031 223.386719 225.945312 C 223.511719 226.058594 223.660156 226.132812 223.832031 226.171875 C 223.996094 226.210938 224.183594 226.234375 224.390625 226.234375 C 224.667969 226.234375 224.941406 226.175781 225.210938 226.0625 C 225.476562 225.953125 225.746094 225.769531 226.023438 225.523438 C 226.292969 225.273438 226.578125 224.949219 226.871094 224.550781 C 227.164062 224.15625 227.480469 223.671875 227.828125 223.109375 L 228.402344 223.191406 C 228.113281 223.640625 227.832031 224.074219 227.550781 224.492188 C 227.265625 224.910156 226.957031 225.285156 226.632812 225.609375 C 226.300781 225.941406 225.9375 226.203125 225.546875 226.398438 C 225.15625 226.597656 224.710938 226.695312 224.207031 226.695312 C 223.589844 226.695312 223.113281 226.585938 222.769531 226.367188 C 222.429688 226.148438 222.171875 225.851562 222.003906 225.46875 C 221.4375 225.960938 220.824219 226.351562 220.171875 226.648438 C 219.519531 226.9375 218.839844 227.082031 218.125 227.082031 C 217.726562 227.082031 217.335938 227.039062 216.960938 226.949219 C 216.589844 226.859375 216.261719 226.71875 215.980469 226.53125 C 215.695312 226.34375 215.464844 226.105469 215.289062 225.8125 C 215.113281 225.519531 215.027344 225.167969 215.027344 224.757812 C 215.027344 224.328125 215.140625 223.902344 215.371094 223.480469 C 215.597656 223.058594 215.921875 222.675781 216.351562 222.339844 C 216.777344 222 217.292969 221.726562 217.902344 221.515625 C 218.503906 221.304688 219.179688 221.195312 219.933594 221.195312 Z M 218.636719 226.589844 C 219.191406 226.589844 219.742188 226.445312 220.292969 226.15625 C 220.847656 225.871094 221.378906 225.496094 221.890625 225.027344 C 221.828125 224.753906 221.789062 224.464844 221.769531 224.15625 C 221.75 223.851562 221.738281 223.527344 221.738281 223.179688 C 221.738281 222.957031 221.738281 222.738281 221.738281 222.519531 C 221.738281 222.304688 221.75 222.09375 221.769531 221.890625 C 221.71875 221.867188 221.648438 221.835938 221.558594 221.796875 C 221.464844 221.753906 221.34375 221.714844 221.203125 221.675781 C 221.0625 221.632812 220.902344 221.601562 220.722656 221.574219 C 220.539062 221.546875 220.332031 221.535156 220.105469 221.535156 C 219.773438 221.535156 219.398438 221.589844 218.976562 221.703125 C 218.554688 221.8125 218.15625 221.992188 217.78125 222.238281 C 217.402344 222.480469 217.085938 222.800781 216.832031 223.191406 C 216.574219 223.585938 216.449219 224.066406 216.449219 224.636719 C 216.449219 224.90625 216.5 225.160156 216.605469 225.402344 C 216.707031 225.640625 216.851562 225.84375 217.042969 226.019531 C 217.234375 226.199219 217.464844 226.335938 217.734375 226.4375 C 218.007812 226.539062 218.308594 226.589844 218.636719 226.589844 Z M 226.316406 216.914062 C 226.316406 216.828125 226.308594 216.730469 226.292969 216.621094 C 226.277344 216.511719 226.246094 216.410156 226.195312 216.316406 C 226.144531 216.21875 226.074219 216.136719 225.984375 216.070312 C 225.890625 216.003906 225.757812 215.96875 225.59375 215.96875 C 225.191406 215.96875 224.824219 216.164062 224.488281 216.558594 C 224.144531 216.953125 223.851562 217.496094 223.605469 218.1875 C 223.359375 218.878906 223.167969 219.691406 223.035156 220.621094 C 222.898438 221.554688 222.832031 222.5625 222.832031 223.636719 L 222.832031 224.027344 C 223.160156 223.640625 223.480469 223.226562 223.785156 222.789062 C 224.085938 222.347656 224.367188 221.902344 224.628906 221.457031 C 224.890625 221.011719 225.125 220.566406 225.328125 220.128906 C 225.535156 219.691406 225.710938 219.273438 225.855469 218.875 C 226 218.476562 226.113281 218.113281 226.195312 217.777344 C 226.273438 217.4375 226.316406 217.152344 226.316406 216.914062 Z M 231.652344 227.234375 C 231.148438 227.234375 230.667969 227.179688 230.207031 227.074219 C 229.746094 226.96875 229.339844 226.8125 228.996094 226.601562 C 228.648438 226.390625 228.371094 226.125 228.167969 225.804688 C 227.960938 225.488281 227.859375 225.117188 227.859375 224.6875 C 227.859375 224.167969 227.984375 223.703125 228.234375 223.292969 C 228.492188 222.886719 228.816406 222.539062 229.214844 222.257812 C 229.609375 221.980469 230.054688 221.765625 230.546875 221.617188 C 231.039062 221.46875 231.519531 221.394531 231.992188 221.394531 C 232.597656 221.394531 233.078125 221.515625 233.4375 221.75 C 233.792969 221.988281 233.96875 222.296875 233.96875 222.671875 C 233.96875 223 233.867188 223.292969 233.660156 223.558594 C 233.457031 223.816406 233.183594 224.042969 232.847656 224.234375 C 232.507812 224.417969 232.117188 224.5625 231.683594 224.667969 C 231.25 224.773438 230.800781 224.828125 230.328125 224.828125 C 230.101562 224.828125 229.886719 224.820312 229.6875 224.804688 C 229.488281 224.792969 229.308594 224.773438 229.152344 224.757812 C 229.207031 225.117188 229.324219 225.425781 229.5 225.6875 C 229.679688 225.945312 229.902344 226.160156 230.160156 226.332031 C 230.425781 226.496094 230.722656 226.621094 231.050781 226.703125 C 231.382812 226.785156 231.722656 226.824219 232.074219 226.824219 C 232.515625 226.824219 232.921875 226.761719 233.292969 226.632812 C 233.667969 226.503906 234.011719 226.339844 234.324219 226.136719 C 234.640625 225.929688 234.925781 225.691406 235.183594 225.425781 C 235.441406 225.160156 235.675781 224.890625 235.882812 224.613281 C 236.085938 224.339844 236.269531 224.070312 236.429688 223.804688 C 236.597656 223.542969 236.742188 223.308594 236.867188 223.109375 L 237.441406 223.191406 C 237.316406 223.386719 237.167969 223.617188 236.996094 223.890625 C 236.820312 224.160156 236.621094 224.445312 236.394531 224.742188 C 236.171875 225.042969 235.910156 225.339844 235.601562 225.636719 C 235.296875 225.9375 234.953125 226.203125 234.574219 226.4375 C 234.191406 226.671875 233.757812 226.863281 233.269531 227.011719 C 232.789062 227.160156 232.25 227.234375 231.652344 227.234375 Z M 232.011719 221.734375 C 231.652344 221.734375 231.296875 221.800781 230.953125 221.9375 C 230.601562 222.074219 230.289062 222.261719 230.019531 222.5 C 229.742188 222.734375 229.519531 223.015625 229.347656 223.34375 C 229.179688 223.667969 229.09375 224.011719 229.09375 224.382812 C 229.21875 224.414062 229.394531 224.4375 229.628906 224.460938 C 229.859375 224.476562 230.140625 224.484375 230.46875 224.484375 C 230.828125 224.484375 231.179688 224.441406 231.523438 224.351562 C 231.871094 224.261719 232.183594 224.140625 232.464844 223.980469 C 232.746094 223.820312 232.972656 223.628906 233.140625 223.410156 C 233.3125 223.191406 233.398438 222.949219 233.398438 222.691406 C 233.398438 222.5625 233.367188 222.441406 233.308594 222.324219 C 233.253906 222.210938 233.164062 222.109375 233.042969 222.023438 C 232.929688 221.933594 232.785156 221.863281 232.617188 221.8125 C 232.441406 221.761719 232.238281 221.734375 232.011719 221.734375 Z M 238.027344 223.191406 L 237.453125 223.109375 C 237.601562 222.882812 237.757812 222.667969 237.929688 222.457031 C 238.105469 222.253906 238.289062 222.074219 238.484375 221.917969 C 238.683594 221.761719 238.894531 221.636719 239.125 221.539062 C 239.355469 221.445312 239.613281 221.394531 239.894531 221.394531 C 240.035156 221.394531 240.191406 221.414062 240.367188 221.449219 C 240.542969 221.484375 240.710938 221.554688 240.871094 221.660156 C 241.03125 221.761719 241.167969 221.910156 241.277344 222.109375 C 241.382812 222.304688 241.4375 222.566406 241.4375 222.890625 C 241.4375 223.058594 241.421875 223.242188 241.390625 223.445312 C 241.367188 223.648438 241.339844 223.847656 241.308594 224.046875 C 241.609375 223.664062 241.910156 223.339844 242.210938 223.078125 C 242.507812 222.8125 242.800781 222.601562 243.09375 222.445312 C 243.382812 222.285156 243.667969 222.167969 243.949219 222.09375 C 244.238281 222.023438 244.523438 221.988281 244.808594 221.988281 C 244.933594 221.988281 245.082031 222.003906 245.253906 222.039062 C 245.421875 222.074219 245.585938 222.132812 245.742188 222.222656 C 245.890625 222.308594 246.019531 222.425781 246.117188 222.578125 C 246.222656 222.730469 246.277344 222.925781 246.277344 223.160156 C 246.277344 223.351562 246.25 223.542969 246.199219 223.734375 C 246.152344 223.925781 246.097656 224.109375 246.042969 224.289062 C 245.984375 224.46875 245.925781 224.636719 245.878906 224.796875 C 245.828125 224.957031 245.800781 225.097656 245.800781 225.21875 C 245.800781 225.507812 245.890625 225.726562 246.074219 225.882812 C 246.25 226.035156 246.515625 226.113281 246.878906 226.113281 C 247.175781 226.113281 247.453125 226.046875 247.714844 225.917969 C 247.980469 225.785156 248.226562 225.621094 248.460938 225.414062 C 248.691406 225.214844 248.902344 224.992188 249.089844 224.75 C 249.28125 224.503906 249.449219 224.273438 249.589844 224.050781 C 249.734375 223.828125 249.855469 223.628906 249.949219 223.457031 C 250.050781 223.285156 250.117188 223.171875 250.152344 223.109375 L 250.730469 223.191406 C 250.589844 223.398438 250.445312 223.621094 250.296875 223.867188 C 250.144531 224.113281 249.976562 224.363281 249.792969 224.609375 C 249.605469 224.859375 249.40625 225.101562 249.1875 225.335938 C 248.972656 225.570312 248.734375 225.777344 248.464844 225.957031 C 248.199219 226.136719 247.914062 226.277344 247.609375 226.386719 C 247.296875 226.5 246.957031 226.554688 246.585938 226.554688 C 246.269531 226.554688 245.996094 226.519531 245.765625 226.445312 C 245.539062 226.371094 245.34375 226.273438 245.183594 226.152344 C 245.03125 226.03125 244.910156 225.886719 244.832031 225.722656 C 244.757812 225.554688 244.71875 225.375 244.71875 225.183594 C 244.71875 224.96875 244.75 224.746094 244.816406 224.519531 C 244.875 224.296875 244.945312 224.078125 245.019531 223.871094 C 245.09375 223.660156 245.164062 223.46875 245.222656 223.292969 C 245.289062 223.117188 245.320312 222.96875 245.320312 222.855469 C 245.320312 222.675781 245.261719 222.542969 245.140625 222.449219 C 245.023438 222.359375 244.863281 222.316406 244.65625 222.316406 C 244.371094 222.316406 244.097656 222.378906 243.832031 222.5 C 243.558594 222.621094 243.296875 222.78125 243.046875 222.988281 C 242.796875 223.1875 242.558594 223.421875 242.332031 223.679688 C 242.113281 223.941406 241.902344 224.207031 241.707031 224.480469 C 241.515625 224.757812 241.339844 225.03125 241.179688 225.304688 C 241.019531 225.578125 240.878906 225.824219 240.757812 226.042969 C 240.644531 226.261719 240.542969 226.449219 240.457031 226.601562 C 240.378906 226.757812 240.324219 226.851562 240.292969 226.890625 L 239.441406 226.804688 C 239.558594 226.464844 239.664062 226.105469 239.765625 225.726562 C 239.859375 225.347656 239.945312 224.972656 240.023438 224.605469 C 240.09375 224.238281 240.148438 223.886719 240.195312 223.550781 C 240.238281 223.214844 240.261719 222.914062 240.261719 222.652344 C 240.261719 222.300781 240.222656 222.0625 240.140625 221.9375 C 240.066406 221.8125 239.925781 221.75 239.71875 221.75 C 239.542969 221.75 239.375 221.792969 239.214844 221.871094 C 239.0625 221.949219 238.917969 222.050781 238.789062 222.183594 C 238.652344 222.3125 238.519531 222.464844 238.394531 222.636719 C 238.269531 222.8125 238.148438 222.996094 238.027344 223.191406 Z M 254.285156 222.835938 C 254.285156 222.488281 254.425781 222.1875 254.707031 221.933594 C 254.988281 221.679688 255.347656 221.433594 255.78125 221.195312 C 255.648438 221.144531 255.5 221.105469 255.347656 221.082031 C 255.191406 221.054688 255.039062 221.039062 254.886719 221.039062 C 254.566406 221.039062 254.222656 221.089844 253.855469 221.183594 C 253.484375 221.28125 253.144531 221.441406 252.839844 221.667969 C 252.527344 221.890625 252.269531 222.195312 252.0625 222.574219 C 251.859375 222.953125 251.753906 223.425781 251.753906 223.992188 C 251.753906 224.460938 251.851562 224.863281 252.042969 225.203125 C 252.230469 225.535156 252.496094 225.8125 252.832031 226.027344 C 253.164062 226.246094 253.550781 226.40625 253.992188 226.507812 C 254.433594 226.609375 254.90625 226.660156 255.40625 226.660156 C 256.003906 226.660156 256.539062 226.566406 257.007812 226.382812 C 257.476562 226.203125 257.90625 225.953125 258.296875 225.628906 C 258.691406 225.308594 259.058594 224.933594 259.394531 224.5 C 259.730469 224.070312 260.066406 223.605469 260.402344 223.109375 L 260.960938 223.191406 C 260.765625 223.476562 260.5625 223.769531 260.351562 224.074219 C 260.140625 224.371094 259.910156 224.667969 259.660156 224.960938 C 259.40625 225.253906 259.132812 225.53125 258.839844 225.789062 C 258.539062 226.050781 258.195312 226.277344 257.808594 226.476562 C 257.421875 226.671875 256.988281 226.828125 256.503906 226.945312 C 256.023438 227.058594 255.484375 227.117188 254.886719 227.117188 C 254.28125 227.117188 253.707031 227.058594 253.164062 226.941406 C 252.617188 226.820312 252.136719 226.640625 251.726562 226.402344 C 251.3125 226.160156 250.988281 225.859375 250.746094 225.496094 C 250.5 225.128906 250.378906 224.703125 250.378906 224.210938 C 250.378906 223.710938 250.515625 223.25 250.792969 222.820312 C 251.074219 222.390625 251.429688 222.023438 251.859375 221.707031 C 252.292969 221.394531 252.765625 221.148438 253.285156 220.96875 C 253.804688 220.792969 254.300781 220.703125 254.773438 220.703125 C 255.320312 220.703125 255.808594 220.785156 256.242188 220.957031 C 256.320312 220.921875 256.398438 220.882812 256.46875 220.84375 C 256.542969 220.804688 256.621094 220.765625 256.699219 220.71875 L 257.023438 220.988281 C 256.964844 221.023438 256.902344 221.054688 256.84375 221.085938 C 256.785156 221.113281 256.726562 221.144531 256.671875 221.179688 C 256.847656 221.304688 256.988281 221.457031 257.101562 221.632812 C 257.214844 221.804688 257.273438 221.996094 257.273438 222.214844 C 257.273438 222.453125 257.226562 222.660156 257.128906 222.839844 C 257.039062 223.023438 256.910156 223.179688 256.746094 223.308594 C 256.585938 223.433594 256.402344 223.53125 256.195312 223.59375 C 255.992188 223.65625 255.773438 223.691406 255.550781 223.691406 C 255.433594 223.691406 255.300781 223.671875 255.148438 223.640625 C 255.003906 223.609375 254.871094 223.558594 254.742188 223.496094 C 254.613281 223.425781 254.503906 223.339844 254.421875 223.230469 C 254.328125 223.125 254.285156 222.992188 254.285156 222.835938 Z M 256.671875 222.214844 C 256.671875 222.046875 256.628906 221.894531 256.542969 221.761719 C 256.457031 221.628906 256.347656 221.511719 256.210938 221.414062 C 255.851562 221.601562 255.539062 221.808594 255.277344 222.035156 C 255.015625 222.265625 254.886719 222.53125 254.886719 222.835938 C 254.886719 223 254.957031 223.125 255.097656 223.214844 C 255.234375 223.304688 255.394531 223.351562 255.578125 223.351562 C 255.796875 223.351562 255.972656 223.3125 256.113281 223.226562 C 256.257812 223.148438 256.371094 223.046875 256.445312 222.929688 C 256.523438 222.8125 256.582031 222.6875 256.617188 222.554688 C 256.652344 222.425781 256.671875 222.3125 256.671875 222.214844 Z M 262.675781 226.449219 C 262.058594 226.449219 261.546875 226.300781 261.140625 226.007812 C 260.734375 225.714844 260.53125 225.265625 260.53125 224.667969 C 260.53125 224.277344 260.667969 223.777344 260.9375 223.164062 C 261.210938 222.554688 261.675781 221.863281 262.339844 221.09375 L 262.886719 221.179688 C 262.828125 221.328125 262.730469 221.535156 262.601562 221.796875 C 262.464844 222.058594 262.332031 222.347656 262.203125 222.667969 C 262.070312 222.992188 261.957031 223.328125 261.855469 223.675781 C 261.757812 224.027344 261.707031 224.363281 261.707031 224.6875 C 261.707031 224.957031 261.742188 225.179688 261.8125 225.351562 C 261.882812 225.523438 261.972656 225.65625 262.082031 225.753906 C 262.199219 225.847656 262.332031 225.914062 262.480469 225.949219 C 262.632812 225.980469 262.792969 225.996094 262.96875 225.996094 C 263.257812 225.996094 263.527344 225.945312 263.785156 225.84375 C 264.039062 225.738281 264.28125 225.601562 264.511719 225.429688 C 264.738281 225.257812 264.953125 225.066406 265.160156 224.855469 C 265.363281 224.644531 265.542969 224.433594 265.703125 224.21875 C 265.863281 224.003906 266.007812 223.800781 266.132812 223.605469 C 266.261719 223.414062 266.363281 223.246094 266.441406 223.109375 L 267.019531 223.191406 C 266.910156 223.367188 266.785156 223.570312 266.644531 223.796875 C 266.496094 224.023438 266.335938 224.261719 266.152344 224.503906 C 265.972656 224.746094 265.769531 224.984375 265.542969 225.21875 C 265.320312 225.449219 265.066406 225.65625 264.785156 225.835938 C 264.5 226.019531 264.183594 226.167969 263.835938 226.28125 C 263.484375 226.394531 263.097656 226.449219 262.675781 226.449219 Z M 265.0625 218.359375 C 265.0625 218.5625 264.929688 218.71875 264.664062 218.828125 C 264.398438 218.9375 264.0625 218.992188 263.664062 218.992188 C 263.457031 218.992188 263.265625 218.972656 263.082031 218.933594 C 262.902344 218.898438 262.746094 218.847656 262.617188 218.785156 C 262.480469 218.726562 262.378906 218.65625 262.308594 218.570312 C 262.234375 218.484375 262.195312 218.398438 262.195312 218.304688 C 262.195312 218.109375 262.324219 217.949219 262.585938 217.828125 C 262.84375 217.703125 263.144531 217.644531 263.488281 217.644531 C 263.734375 217.644531 263.957031 217.667969 264.152344 217.710938 C 264.347656 217.753906 264.511719 217.8125 264.648438 217.878906 C 264.785156 217.949219 264.886719 218.027344 264.957031 218.109375 C 265.027344 218.195312 265.0625 218.277344 265.0625 218.359375 Z M 264.265625 218.359375 C 264.265625 218.300781 264.226562 218.246094 264.144531 218.195312 C 264.058594 218.148438 263.933594 218.125 263.769531 218.125 C 263.460938 218.125 263.308594 218.191406 263.308594 218.324219 C 263.308594 218.386719 263.355469 218.441406 263.453125 218.484375 C 263.542969 218.527344 263.667969 218.550781 263.828125 218.550781 C 263.972656 218.550781 264.085938 218.53125 264.160156 218.492188 C 264.230469 218.453125 264.265625 218.410156 264.265625 218.359375 Z M 277.789062 223.109375 L 278.363281 223.191406 C 277.960938 223.835938 277.597656 224.375 277.269531 224.808594 C 276.941406 225.242188 276.621094 225.59375 276.316406 225.859375 C 276.003906 226.125 275.699219 226.316406 275.398438 226.433594 C 275.089844 226.546875 274.757812 226.605469 274.394531 226.605469 C 273.953125 226.605469 273.578125 226.515625 273.265625 226.335938 C 272.949219 226.152344 272.753906 225.867188 272.671875 225.484375 C 272.359375 225.886719 271.953125 226.210938 271.453125 226.464844 C 270.957031 226.714844 270.328125 226.84375 269.570312 226.84375 C 269.167969 226.84375 268.785156 226.796875 268.417969 226.707031 C 268.054688 226.621094 267.726562 226.488281 267.441406 226.308594 C 267.15625 226.125 266.925781 225.894531 266.757812 225.613281 C 266.585938 225.339844 266.5 225.011719 266.5 224.636719 C 266.5 224.253906 266.582031 223.894531 266.742188 223.558594 C 266.90625 223.222656 267.121094 222.914062 267.382812 222.632812 C 267.648438 222.351562 267.953125 222.105469 268.300781 221.886719 C 268.652344 221.664062 269.011719 221.476562 269.382812 221.328125 C 269.753906 221.179688 270.125 221.0625 270.496094 220.976562 C 270.875 220.898438 271.21875 220.859375 271.527344 220.859375 C 271.804688 220.859375 272.070312 220.878906 272.324219 220.921875 C 272.578125 220.957031 272.804688 221.023438 273.003906 221.117188 C 273.203125 221.203125 273.367188 221.324219 273.492188 221.476562 C 273.613281 221.628906 273.671875 221.816406 273.671875 222.039062 C 273.671875 222.308594 273.589844 222.539062 273.417969 222.734375 C 273.246094 222.929688 273.042969 223.09375 272.800781 223.226562 C 272.558594 223.359375 272.3125 223.46875 272.0625 223.550781 C 271.816406 223.632812 271.617188 223.691406 271.46875 223.726562 L 271.296875 223.382812 C 271.324219 223.382812 271.433594 223.359375 271.625 223.316406 C 271.816406 223.269531 272.015625 223.191406 272.226562 223.085938 C 272.4375 222.980469 272.632812 222.839844 272.808594 222.671875 C 272.984375 222.507812 273.070312 222.300781 273.070312 222.058594 C 273.070312 221.78125 272.9375 221.566406 272.671875 221.417969 C 272.410156 221.269531 272.074219 221.195312 271.664062 221.195312 C 271.347656 221.195312 270.980469 221.261719 270.558594 221.394531 C 270.136719 221.53125 269.730469 221.738281 269.34375 222.023438 C 268.960938 222.304688 268.628906 222.664062 268.359375 223.097656 C 268.089844 223.53125 267.953125 224.050781 267.953125 224.65625 C 267.953125 225.25 268.132812 225.703125 268.496094 226.015625 C 268.851562 226.328125 269.332031 226.488281 269.941406 226.488281 C 270.246094 226.488281 270.539062 226.4375 270.8125 226.335938 C 271.09375 226.230469 271.351562 226.097656 271.589844 225.929688 C 271.824219 225.761719 272.035156 225.566406 272.222656 225.34375 C 272.40625 225.121094 272.566406 224.890625 272.703125 224.65625 C 272.703125 224.46875 272.738281 224.25 272.816406 223.996094 C 272.890625 223.746094 273.007812 223.488281 273.160156 223.226562 L 274.058594 223.402344 C 274.007812 223.476562 273.960938 223.578125 273.914062 223.699219 C 273.863281 223.820312 273.816406 223.953125 273.769531 224.097656 C 273.726562 224.242188 273.6875 224.390625 273.660156 224.542969 C 273.628906 224.699219 273.613281 224.847656 273.613281 224.992188 C 273.613281 225.441406 273.691406 225.753906 273.847656 225.925781 C 273.996094 226.09375 274.257812 226.179688 274.628906 226.179688 C 274.84375 226.179688 275.058594 226.132812 275.269531 226.042969 C 275.480469 225.949219 275.707031 225.789062 275.953125 225.558594 C 276.199219 225.324219 276.46875 225.011719 276.757812 224.613281 C 277.054688 224.21875 277.398438 223.714844 277.789062 223.109375 Z M 283.480469 216.414062 C 283.480469 216.777344 283.410156 217.164062 283.269531 217.578125 C 283.125 217.984375 282.9375 218.402344 282.707031 218.828125 C 282.472656 219.25 282.210938 219.675781 281.914062 220.101562 C 281.613281 220.53125 281.3125 220.941406 281.011719 221.332031 C 280.707031 221.726562 280.40625 222.101562 280.117188 222.453125 C 279.820312 222.808594 279.558594 223.125 279.332031 223.402344 C 279.375 223.875 279.441406 224.304688 279.535156 224.6875 C 279.636719 225.066406 279.761719 225.394531 279.90625 225.664062 C 280.054688 225.933594 280.234375 226.140625 280.441406 226.285156 C 280.644531 226.433594 280.878906 226.503906 281.140625 226.503906 C 281.4375 226.503906 281.730469 226.421875 282.019531 226.257812 C 282.304688 226.097656 282.597656 225.867188 282.894531 225.574219 C 283.183594 225.277344 283.484375 224.921875 283.789062 224.503906 C 284.089844 224.089844 284.398438 223.625 284.714844 223.109375 L 285.285156 223.191406 C 285.050781 223.59375 284.789062 224.015625 284.496094 224.460938 C 284.199219 224.902344 283.871094 225.308594 283.511719 225.675781 C 283.148438 226.046875 282.753906 226.355469 282.328125 226.597656 C 281.902344 226.839844 281.445312 226.960938 280.953125 226.960938 C 280.460938 226.960938 280.046875 226.875 279.71875 226.695312 C 279.386719 226.515625 279.113281 226.277344 278.898438 225.984375 C 278.679688 225.695312 278.511719 225.363281 278.394531 224.988281 C 278.277344 224.613281 278.1875 224.234375 278.128906 223.847656 C 278.070312 223.457031 278.035156 223.078125 278.023438 222.710938 C 278.015625 222.34375 278.007812 222.019531 278.007812 221.734375 C 278.007812 221.210938 278.046875 220.6875 278.121094 220.164062 C 278.195312 219.644531 278.308594 219.144531 278.460938 218.671875 C 278.609375 218.195312 278.792969 217.753906 279.011719 217.347656 C 279.226562 216.9375 279.480469 216.585938 279.769531 216.289062 C 280.054688 215.988281 280.375 215.757812 280.726562 215.589844 C 281.070312 215.421875 281.449219 215.335938 281.863281 215.335938 C 282.160156 215.335938 282.410156 215.363281 282.613281 215.421875 C 282.820312 215.480469 282.988281 215.558594 283.113281 215.65625 C 283.238281 215.753906 283.332031 215.867188 283.390625 216 C 283.449219 216.128906 283.480469 216.265625 283.480469 216.414062 Z M 279.242188 221.414062 C 279.242188 221.632812 279.242188 221.847656 279.242188 222.0625 C 279.242188 222.273438 279.253906 222.476562 279.273438 222.671875 C 279.519531 222.382812 279.78125 222.066406 280.054688 221.71875 C 280.332031 221.375 280.601562 221.019531 280.867188 220.652344 C 281.140625 220.285156 281.398438 219.914062 281.644531 219.539062 C 281.890625 219.160156 282.105469 218.792969 282.292969 218.429688 C 282.476562 218.070312 282.625 217.726562 282.734375 217.398438 C 282.851562 217.070312 282.910156 216.773438 282.910156 216.511719 C 282.910156 216.421875 282.894531 216.328125 282.871094 216.230469 C 282.847656 216.132812 282.800781 216.042969 282.734375 215.960938 C 282.675781 215.875 282.585938 215.804688 282.464844 215.75 C 282.347656 215.695312 282.199219 215.664062 282.011719 215.664062 C 281.636719 215.664062 281.28125 215.808594 280.945312 216.097656 C 280.609375 216.382812 280.3125 216.777344 280.0625 217.289062 C 279.8125 217.796875 279.613281 218.40625 279.46875 219.109375 C 279.320312 219.8125 279.242188 220.582031 279.242188 221.414062 Z M 295.5 218.34375 C 295.5 218.664062 295.613281 218.957031 295.839844 219.214844 C 296.066406 219.472656 296.367188 219.707031 296.75 219.914062 C 297.136719 220.125 297.585938 220.320312 298.097656 220.5 C 298.613281 220.675781 299.160156 220.847656 299.738281 221.007812 C 300.316406 221.175781 300.910156 221.339844 301.523438 221.5 C 302.132812 221.65625 302.730469 221.824219 303.3125 222 C 303.890625 222.175781 304.433594 222.367188 304.945312 222.574219 C 305.464844 222.777344 305.914062 223.007812 306.292969 223.257812 C 306.675781 223.511719 306.980469 223.792969 307.203125 224.105469 C 307.429688 224.410156 307.542969 224.761719 307.542969 225.148438 C 307.542969 225.855469 307.316406 226.464844 306.867188 226.984375 C 306.414062 227.503906 305.8125 227.929688 305.058594 228.269531 C 304.308594 228.605469 303.429688 228.859375 302.425781 229.023438 C 301.425781 229.191406 300.382812 229.273438 299.292969 229.273438 C 298.335938 229.273438 297.429688 229.199219 296.578125 229.050781 C 295.722656 228.902344 294.972656 228.699219 294.328125 228.433594 C 293.679688 228.167969 293.167969 227.855469 292.792969 227.488281 C 292.414062 227.121094 292.226562 226.71875 292.226562 226.285156 C 292.226562 225.902344 292.328125 225.578125 292.527344 225.308594 C 292.726562 225.039062 292.949219 224.816406 293.191406 224.644531 C 293.429688 224.472656 293.660156 224.34375 293.875 224.261719 C 294.089844 224.179688 294.210938 224.136719 294.234375 224.128906 L 294.558594 224.539062 C 294.542969 224.546875 294.453125 224.582031 294.28125 224.652344 C 294.117188 224.714844 293.9375 224.816406 293.746094 224.957031 C 293.554688 225.097656 293.378906 225.273438 293.21875 225.492188 C 293.054688 225.707031 292.972656 225.972656 292.972656 226.285156 C 292.972656 226.597656 293.074219 226.875 293.28125 227.121094 C 293.480469 227.367188 293.75 227.585938 294.085938 227.769531 C 294.421875 227.953125 294.808594 228.113281 295.246094 228.246094 C 295.679688 228.378906 296.136719 228.488281 296.605469 228.570312 C 297.078125 228.65625 297.546875 228.71875 298.015625 228.753906 C 298.484375 228.792969 298.921875 228.8125 299.324219 228.8125 C 300.363281 228.8125 301.304688 228.734375 302.148438 228.582031 C 302.988281 228.429688 303.707031 228.21875 304.300781 227.949219 C 304.898438 227.679688 305.355469 227.367188 305.675781 227.011719 C 305.996094 226.65625 306.160156 226.273438 306.160156 225.859375 C 306.160156 225.398438 305.992188 225 305.660156 224.664062 C 305.332031 224.324219 304.890625 224.027344 304.335938 223.769531 C 303.789062 223.511719 303.164062 223.28125 302.464844 223.078125 C 301.765625 222.871094 301.050781 222.671875 300.316406 222.472656 C 299.589844 222.277344 298.875 222.070312 298.171875 221.855469 C 297.46875 221.632812 296.84375 221.382812 296.296875 221.101562 C 295.75 220.816406 295.308594 220.488281 294.972656 220.117188 C 294.644531 219.742188 294.476562 219.296875 294.476562 218.78125 C 294.476562 218.210938 294.640625 217.6875 294.964844 217.210938 C 295.296875 216.738281 295.75 216.328125 296.320312 215.980469 C 296.894531 215.636719 297.566406 215.371094 298.339844 215.183594 C 299.117188 214.996094 299.953125 214.902344 300.851562 214.902344 C 301.765625 214.902344 302.566406 214.964844 303.253906 215.085938 C 303.9375 215.210938 304.511719 215.386719 304.976562 215.609375 C 305.445312 215.832031 305.792969 216.101562 306.023438 216.414062 C 306.253906 216.726562 306.371094 217.070312 306.371094 217.445312 C 306.371094 217.753906 306.304688 218.054688 306.179688 218.347656 C 306.0625 218.636719 305.925781 218.898438 305.78125 219.128906 C 305.632812 219.363281 305.492188 219.550781 305.367188 219.695312 C 305.242188 219.839844 305.175781 219.921875 305.164062 219.9375 L 304.503906 219.71875 C 304.503906 219.714844 304.558594 219.644531 304.667969 219.511719 C 304.785156 219.378906 304.910156 219.203125 305.042969 218.992188 C 305.179688 218.777344 305.304688 218.535156 305.421875 218.265625 C 305.53125 217.996094 305.585938 217.722656 305.585938 217.445312 C 305.585938 217.132812 305.492188 216.847656 305.300781 216.589844 C 305.109375 216.332031 304.820312 216.113281 304.425781 215.9375 C 304.035156 215.757812 303.542969 215.617188 302.945312 215.519531 C 302.347656 215.421875 301.640625 215.371094 300.820312 215.371094 C 300.070312 215.371094 299.371094 215.445312 298.722656 215.589844 C 298.074219 215.738281 297.515625 215.945312 297.042969 216.210938 C 296.566406 216.480469 296.191406 216.792969 295.914062 217.15625 C 295.640625 217.515625 295.5 217.914062 295.5 218.34375 Z M 314.097656 227.234375 C 313.597656 227.234375 313.117188 227.179688 312.660156 227.074219 C 312.199219 226.96875 311.796875 226.8125 311.449219 226.601562 C 311.097656 226.390625 310.820312 226.125 310.613281 225.804688 C 310.410156 225.488281 310.304688 225.117188 310.304688 224.6875 C 310.304688 224.167969 310.433594 223.703125 310.691406 223.292969 C 310.945312 222.886719 311.273438 222.539062 311.667969 222.257812 C 312.0625 221.980469 312.507812 221.765625 313 221.617188 C 313.488281 221.46875 313.964844 221.394531 314.4375 221.394531 C 315.046875 221.394531 315.527344 221.515625 315.882812 221.75 C 316.246094 221.988281 316.425781 222.296875 316.425781 222.671875 C 316.425781 223 316.320312 223.292969 316.117188 223.558594 C 315.910156 223.816406 315.636719 224.042969 315.296875 224.234375 C 314.960938 224.417969 314.574219 224.5625 314.136719 224.667969 C 313.699219 224.773438 313.246094 224.828125 312.773438 224.828125 C 312.546875 224.828125 312.335938 224.820312 312.132812 224.804688 C 311.933594 224.792969 311.753906 224.773438 311.601562 224.757812 C 311.660156 225.117188 311.777344 225.425781 311.953125 225.6875 C 312.128906 225.945312 312.351562 226.160156 312.617188 226.332031 C 312.882812 226.496094 313.179688 226.621094 313.503906 226.703125 C 313.832031 226.785156 314.171875 226.824219 314.527344 226.824219 C 314.96875 226.824219 315.375 226.761719 315.746094 226.632812 C 316.117188 226.503906 316.460938 226.339844 316.777344 226.136719 C 317.089844 225.929688 317.375 225.691406 317.636719 225.425781 C 317.898438 225.160156 318.132812 224.890625 318.335938 224.613281 C 318.542969 224.339844 318.726562 224.070312 318.886719 223.804688 C 319.046875 223.542969 319.191406 223.308594 319.316406 223.109375 L 319.894531 223.191406 C 319.765625 223.386719 319.613281 223.617188 319.441406 223.890625 C 319.273438 224.160156 319.074219 224.445312 318.847656 224.742188 C 318.621094 225.042969 318.355469 225.339844 318.050781 225.636719 C 317.75 225.9375 317.410156 226.203125 317.027344 226.4375 C 316.644531 226.671875 316.210938 226.863281 315.726562 227.011719 C 315.238281 227.160156 314.695312 227.234375 314.097656 227.234375 Z M 314.46875 221.734375 C 314.105469 221.734375 313.75 221.800781 313.398438 221.9375 C 313.054688 222.074219 312.742188 222.261719 312.464844 222.5 C 312.195312 222.734375 311.972656 223.015625 311.796875 223.34375 C 311.625 223.667969 311.539062 224.011719 311.539062 224.382812 C 311.671875 224.414062 311.847656 224.4375 312.074219 224.460938 C 312.304688 224.476562 312.589844 224.484375 312.925781 224.484375 C 313.277344 224.484375 313.625 224.441406 313.972656 224.351562 C 314.324219 224.261719 314.636719 224.140625 314.910156 223.980469 C 315.191406 223.820312 315.417969 223.628906 315.589844 223.410156 C 315.761719 223.191406 315.84375 222.949219 315.84375 222.691406 C 315.84375 222.5625 315.816406 222.441406 315.761719 222.324219 C 315.703125 222.210938 315.613281 222.109375 315.5 222.023438 C 315.378906 221.933594 315.234375 221.863281 315.0625 221.8125 C 314.890625 221.761719 314.695312 221.734375 314.46875 221.734375 Z M 316.863281 220.300781 L 316.566406 220.476562 L 314.160156 219.375 L 311.832031 220.476562 L 311.539062 220.300781 L 314.160156 218.738281 Z M 320.480469 223.191406 L 319.902344 223.109375 C 320.054688 222.882812 320.214844 222.667969 320.382812 222.457031 C 320.554688 222.253906 320.738281 222.074219 320.933594 221.917969 C 321.128906 221.761719 321.34375 221.636719 321.574219 221.539062 C 321.804688 221.445312 322.0625 221.394531 322.347656 221.394531 C 322.484375 221.394531 322.640625 221.414062 322.816406 221.449219 C 322.992188 221.484375 323.160156 221.554688 323.328125 221.660156 C 323.488281 221.761719 323.621094 221.910156 323.726562 222.109375 C 323.835938 222.304688 323.890625 222.566406 323.890625 222.890625 C 323.890625 223.058594 323.875 223.242188 323.847656 223.445312 C 323.816406 223.648438 323.785156 223.847656 323.757812 224.046875 C 324.0625 223.664062 324.363281 223.339844 324.660156 223.078125 C 324.960938 222.8125 325.253906 222.601562 325.539062 222.445312 C 325.832031 222.285156 326.121094 222.167969 326.40625 222.09375 C 326.6875 222.023438 326.96875 221.988281 327.253906 221.988281 C 327.382812 221.988281 327.53125 222.003906 327.707031 222.039062 C 327.878906 222.074219 328.039062 222.132812 328.1875 222.222656 C 328.339844 222.308594 328.46875 222.425781 328.574219 222.578125 C 328.671875 222.730469 328.722656 222.925781 328.722656 223.160156 C 328.722656 223.351562 328.699219 223.542969 328.65625 223.734375 C 328.605469 223.925781 328.550781 224.109375 328.488281 224.289062 C 328.429688 224.46875 328.378906 224.636719 328.332031 224.796875 C 328.28125 224.957031 328.257812 225.097656 328.257812 225.21875 C 328.257812 225.507812 328.34375 225.726562 328.519531 225.882812 C 328.695312 226.035156 328.964844 226.113281 329.324219 226.113281 C 329.621094 226.113281 329.902344 226.046875 330.167969 225.917969 C 330.429688 225.785156 330.675781 225.621094 330.90625 225.414062 C 331.136719 225.214844 331.347656 224.992188 331.539062 224.75 C 331.730469 224.503906 331.898438 224.273438 332.042969 224.050781 C 332.183594 223.828125 332.304688 223.628906 332.402344 223.457031 C 332.5 223.285156 332.566406 223.171875 332.605469 223.109375 L 333.179688 223.191406 C 333.042969 223.398438 332.902344 223.621094 332.75 223.867188 C 332.59375 224.113281 332.425781 224.363281 332.238281 224.609375 C 332.054688 224.859375 331.851562 225.101562 331.636719 225.335938 C 331.421875 225.570312 331.179688 225.777344 330.914062 225.957031 C 330.652344 226.136719 330.367188 226.277344 330.054688 226.386719 C 329.75 226.5 329.410156 226.554688 329.03125 226.554688 C 328.722656 226.554688 328.449219 226.519531 328.21875 226.445312 C 327.988281 226.371094 327.796875 226.273438 327.640625 226.152344 C 327.484375 226.03125 327.367188 225.886719 327.285156 225.722656 C 327.207031 225.554688 327.164062 225.375 327.164062 225.183594 C 327.164062 224.96875 327.199219 224.746094 327.261719 224.519531 C 327.328125 224.296875 327.394531 224.078125 327.464844 223.871094 C 327.542969 223.660156 327.613281 223.46875 327.675781 223.292969 C 327.738281 223.117188 327.769531 222.96875 327.769531 222.855469 C 327.769531 222.675781 327.710938 222.542969 327.59375 222.449219 C 327.480469 222.359375 327.316406 222.316406 327.105469 222.316406 C 326.824219 222.316406 326.546875 222.378906 326.277344 222.5 C 326.007812 222.621094 325.746094 222.78125 325.503906 222.988281 C 325.25 223.1875 325.011719 223.421875 324.785156 223.679688 C 324.5625 223.941406 324.351562 224.207031 324.164062 224.480469 C 323.972656 224.757812 323.796875 225.03125 323.636719 225.304688 C 323.46875 225.578125 323.328125 225.824219 323.214844 226.042969 C 323.09375 226.261719 322.992188 226.449219 322.914062 226.601562 C 322.828125 226.757812 322.769531 226.851562 322.738281 226.890625 L 321.890625 226.804688 C 322.007812 226.464844 322.117188 226.105469 322.214844 225.726562 C 322.3125 225.347656 322.398438 224.972656 322.46875 224.605469 C 322.542969 224.238281 322.605469 223.886719 322.648438 223.550781 C 322.695312 223.214844 322.71875 222.914062 322.71875 222.652344 C 322.71875 222.300781 322.675781 222.0625 322.597656 221.9375 C 322.515625 221.8125 322.375 221.75 322.167969 221.75 C 321.992188 221.75 321.828125 221.792969 321.671875 221.871094 C 321.515625 221.949219 321.371094 222.050781 321.234375 222.183594 C 321.105469 222.3125 320.972656 222.464844 320.84375 222.636719 C 320.71875 222.8125 320.597656 222.996094 320.480469 223.191406 Z M 334.902344 226.449219 C 334.285156 226.449219 333.769531 226.300781 333.359375 226.007812 C 332.953125 225.714844 332.75 225.265625 332.75 224.667969 C 332.75 224.277344 332.886719 223.777344 333.15625 223.164062 C 333.425781 222.554688 333.898438 221.863281 334.5625 221.09375 L 335.105469 221.179688 C 335.046875 221.328125 334.949219 221.535156 334.820312 221.796875 C 334.683594 222.058594 334.550781 222.347656 334.421875 222.667969 C 334.289062 222.992188 334.175781 223.328125 334.074219 223.675781 C 333.980469 224.027344 333.933594 224.363281 333.933594 224.6875 C 333.933594 224.957031 333.964844 225.179688 334.03125 225.351562 C 334.101562 225.523438 334.191406 225.65625 334.300781 225.753906 C 334.417969 225.847656 334.550781 225.914062 334.699219 225.949219 C 334.851562 225.980469 335.015625 225.996094 335.195312 225.996094 C 335.476562 225.996094 335.746094 225.945312 336 225.84375 C 336.257812 225.738281 336.5 225.601562 336.730469 225.429688 C 336.960938 225.257812 337.179688 225.066406 337.378906 224.855469 C 337.578125 224.644531 337.761719 224.433594 337.921875 224.21875 C 338.082031 224.003906 338.226562 223.800781 338.359375 223.605469 C 338.484375 223.414062 338.585938 223.246094 338.667969 223.109375 L 339.238281 223.191406 C 339.128906 223.367188 339.003906 223.570312 338.863281 223.796875 C 338.722656 224.023438 338.558594 224.261719 338.371094 224.503906 C 338.191406 224.746094 337.988281 224.984375 337.761719 225.21875 C 337.542969 225.449219 337.289062 225.65625 337.003906 225.835938 C 336.71875 226.019531 336.402344 226.167969 336.054688 226.28125 C 335.707031 226.394531 335.324219 226.449219 334.902344 226.449219 Z M 337.28125 218.359375 C 337.28125 218.5625 337.148438 218.71875 336.882812 218.828125 C 336.621094 218.9375 336.289062 218.992188 335.882812 218.992188 C 335.675781 218.992188 335.484375 218.972656 335.300781 218.933594 C 335.121094 218.898438 334.964844 218.847656 334.835938 218.785156 C 334.699219 218.726562 334.597656 218.65625 334.527344 218.570312 C 334.453125 218.484375 334.414062 218.398438 334.414062 218.304688 C 334.414062 218.109375 334.542969 217.949219 334.804688 217.828125 C 335.066406 217.703125 335.367188 217.644531 335.707031 217.644531 C 335.953125 217.644531 336.175781 217.667969 336.371094 217.710938 C 336.566406 217.753906 336.730469 217.8125 336.867188 217.878906 C 337.007812 217.949219 337.109375 218.027344 337.175781 218.109375 C 337.246094 218.195312 337.28125 218.277344 337.28125 218.359375 Z M 336.492188 218.359375 C 336.492188 218.300781 336.449219 218.246094 336.363281 218.195312 C 336.277344 218.148438 336.152344 218.125 335.988281 218.125 C 335.6875 218.125 335.535156 218.191406 335.535156 218.324219 C 335.535156 218.386719 335.582031 218.441406 335.671875 218.484375 C 335.765625 218.527344 335.890625 218.550781 336.046875 218.550781 C 336.191406 218.550781 336.304688 218.53125 336.378906 218.492188 C 336.453125 218.453125 336.492188 218.410156 336.492188 218.359375 Z M 342.941406 226.570312 C 343.488281 226.570312 344.015625 226.453125 344.523438 226.214844 C 345.023438 225.976562 345.417969 225.632812 345.703125 225.183594 L 345.582031 225.183594 C 344.976562 225.183594 344.417969 225.125 343.90625 225 C 343.386719 224.878906 342.941406 224.710938 342.566406 224.492188 C 342.1875 224.273438 341.894531 224.015625 341.675781 223.710938 C 341.460938 223.40625 341.351562 223.070312 341.351562 222.707031 C 341.351562 222.507812 341.398438 222.300781 341.488281 222.089844 C 341.585938 221.882812 341.730469 221.695312 341.925781 221.53125 C 342.121094 221.367188 342.375 221.234375 342.691406 221.128906 C 343.003906 221.023438 343.375 220.96875 343.808594 220.96875 C 344.15625 220.96875 344.507812 221.011719 344.851562 221.097656 C 345.195312 221.179688 345.503906 221.324219 345.777344 221.523438 C 346.050781 221.730469 346.273438 222.003906 346.449219 222.347656 C 346.621094 222.691406 346.703125 223.128906 346.703125 223.65625 C 346.703125 223.851562 346.691406 224.046875 346.660156 224.242188 C 346.628906 224.433594 346.578125 224.625 346.5 224.808594 C 346.882812 224.769531 347.222656 224.695312 347.519531 224.59375 C 347.820312 224.488281 348.085938 224.363281 348.316406 224.214844 C 348.546875 224.066406 348.75 223.898438 348.925781 223.710938 C 349.101562 223.523438 349.261719 223.320312 349.40625 223.109375 L 349.980469 223.191406 C 349.773438 223.523438 349.539062 223.804688 349.269531 224.035156 C 349 224.269531 348.710938 224.460938 348.398438 224.621094 C 348.09375 224.773438 347.769531 224.894531 347.433594 224.980469 C 347.09375 225.0625 346.742188 225.117188 346.382812 225.148438 C 346.246094 225.433594 346.066406 225.699219 345.839844 225.949219 C 345.613281 226.199219 345.335938 226.414062 345.011719 226.597656 C 344.691406 226.785156 344.316406 226.929688 343.890625 227.039062 C 343.464844 227.144531 342.984375 227.199219 342.453125 227.199219 C 342.015625 227.199219 341.574219 227.144531 341.128906 227.039062 C 340.679688 226.929688 340.277344 226.765625 339.914062 226.539062 C 339.558594 226.316406 339.269531 226.039062 339.050781 225.699219 C 338.828125 225.363281 338.71875 224.957031 338.71875 224.484375 C 338.71875 224.179688 338.78125 223.878906 338.90625 223.582031 C 339.027344 223.289062 339.199219 223.011719 339.417969 222.746094 C 339.640625 222.484375 339.902344 222.238281 340.210938 222.007812 C 340.511719 221.78125 340.835938 221.582031 341.1875 221.414062 L 341.414062 221.632812 C 341.1875 221.753906 340.972656 221.902344 340.765625 222.082031 C 340.558594 222.261719 340.375 222.460938 340.210938 222.675781 C 340.039062 222.894531 339.90625 223.121094 339.808594 223.367188 C 339.710938 223.605469 339.660156 223.84375 339.660156 224.082031 C 339.660156 224.550781 339.761719 224.941406 339.960938 225.257812 C 340.160156 225.578125 340.421875 225.835938 340.734375 226.027344 C 341.046875 226.222656 341.402344 226.363281 341.796875 226.445312 C 342.1875 226.53125 342.570312 226.570312 342.941406 226.570312 Z M 343.777344 221.3125 C 343.511719 221.3125 343.265625 221.34375 343.046875 221.410156 C 342.820312 221.476562 342.621094 221.570312 342.453125 221.683594 C 342.285156 221.800781 342.15625 221.9375 342.0625 222.097656 C 341.960938 222.261719 341.910156 222.441406 341.910156 222.636719 C 341.910156 222.980469 342.007812 223.285156 342.203125 223.558594 C 342.398438 223.828125 342.667969 224.0625 343.007812 224.253906 C 343.34375 224.445312 343.738281 224.589844 344.191406 224.691406 C 344.640625 224.792969 345.125 224.847656 345.644531 224.847656 L 345.921875 224.847656 C 346.003906 224.664062 346.058594 224.476562 346.085938 224.28125 C 346.117188 224.082031 346.132812 223.867188 346.132812 223.636719 C 346.113281 223.191406 346.035156 222.820312 345.898438 222.519531 C 345.769531 222.222656 345.601562 221.984375 345.394531 221.804688 C 345.1875 221.625 344.945312 221.496094 344.664062 221.421875 C 344.390625 221.347656 344.09375 221.3125 343.777344 221.3125 Z M 350.867188 222.734375 C 350.765625 222.9375 350.667969 223.109375 350.566406 223.253906 C 350.46875 223.398438 350.363281 223.535156 350.242188 223.660156 C 350.125 223.785156 350 223.902344 349.859375 224.015625 C 349.710938 224.128906 349.550781 224.25 349.375 224.382812 L 349.265625 224.3125 C 349.488281 223.972656 349.6875 223.652344 349.859375 223.351562 C 350.027344 223.050781 350.183594 222.746094 350.316406 222.445312 C 350.160156 222.316406 350.027344 222.148438 349.917969 221.949219 C 349.804688 221.75 349.746094 221.511719 349.746094 221.230469 C 349.746094 220.984375 349.8125 220.773438 349.941406 220.609375 C 350.078125 220.445312 350.253906 220.363281 350.46875 220.363281 C 350.582031 220.363281 350.695312 220.394531 350.800781 220.457031 C 350.898438 220.523438 350.984375 220.609375 351.054688 220.710938 C 351.125 220.816406 351.179688 220.933594 351.214844 221.070312 C 351.253906 221.207031 351.273438 221.351562 351.273438 221.503906 C 351.273438 221.570312 351.265625 221.644531 351.25 221.726562 C 351.234375 221.808594 351.21875 221.890625 351.199219 221.972656 C 351.183594 222.058594 351.160156 222.136719 351.128906 222.21875 C 351.101562 222.296875 351.070312 222.359375 351.039062 222.414062 C 351.101562 222.441406 351.195312 222.464844 351.324219 222.484375 C 351.457031 222.507812 351.628906 222.515625 351.84375 222.515625 C 352.222656 222.515625 352.550781 222.484375 352.832031 222.421875 C 353.117188 222.359375 353.34375 222.277344 353.507812 222.179688 C 353.65625 222.039062 353.769531 221.933594 353.855469 221.859375 C 353.941406 221.78125 354.003906 221.726562 354.050781 221.691406 C 354.101562 221.652344 354.136719 221.628906 354.164062 221.617188 C 354.1875 221.609375 354.222656 221.605469 354.261719 221.605469 C 354.367188 221.605469 354.453125 221.621094 354.523438 221.660156 C 354.59375 221.691406 354.628906 221.738281 354.628906 221.804688 C 354.628906 221.824219 354.617188 221.847656 354.585938 221.875 C 354.554688 221.902344 354.515625 221.941406 354.464844 221.988281 C 354.054688 222.339844 353.730469 222.726562 353.492188 223.152344 C 353.257812 223.574219 353.140625 224.042969 353.140625 224.558594 C 353.140625 225.152344 353.304688 225.585938 353.636719 225.851562 C 353.964844 226.117188 354.429688 226.25 355.035156 226.25 C 355.371094 226.25 355.691406 226.191406 355.992188 226.074219 C 356.296875 225.953125 356.597656 225.769531 356.886719 225.515625 C 357.183594 225.265625 357.480469 224.941406 357.777344 224.542969 C 358.078125 224.148438 358.398438 223.667969 358.738281 223.109375 L 359.320312 223.191406 C 358.898438 223.925781 358.5 224.53125 358.121094 225.007812 C 357.75 225.476562 357.386719 225.851562 357.023438 226.125 C 356.664062 226.398438 356.289062 226.589844 355.902344 226.699219 C 355.519531 226.804688 355.105469 226.859375 354.652344 226.859375 C 354.371094 226.859375 354.078125 226.820312 353.773438 226.746094 C 353.472656 226.671875 353.195312 226.550781 352.945312 226.386719 C 352.695312 226.230469 352.488281 226.019531 352.335938 225.761719 C 352.179688 225.503906 352.101562 225.191406 352.101562 224.828125 C 352.101562 224.648438 352.125 224.460938 352.175781 224.269531 C 352.230469 224.074219 352.304688 223.882812 352.394531 223.703125 C 352.480469 223.519531 352.578125 223.34375 352.6875 223.175781 C 352.792969 223.003906 352.90625 222.847656 353.027344 222.707031 C 352.671875 222.804688 352.285156 222.855469 351.875 222.855469 C 351.472656 222.855469 351.136719 222.8125 350.867188 222.734375 Z M 350.867188 222.734375 " fill-opacity="1" fill-rule="nonzero"/></g><g clip-path="url(#f2efcb196c)"><path fill="#295a88" d="M 82.460938 196.144531 C 81.546875 196.90625 80.519531 197.6875 79.375 198.492188 C 78.21875 199.308594 76.988281 200.050781 75.691406 200.714844 C 74.382812 201.390625 73.015625 201.945312 71.589844 202.378906 C 70.164062 202.808594 68.71875 203.023438 67.257812 203.023438 C 66.824219 203.023438 66.394531 202.96875 65.960938 202.851562 C 65.527344 202.734375 65.140625 202.535156 64.804688 202.253906 C 64.453125 201.976562 64.171875 201.597656 63.960938 201.117188 C 63.738281 200.640625 63.640625 200.03125 63.664062 199.296875 C 63.664062 198.457031 63.710938 196.339844 63.804688 192.941406 C 63.828125 191.507812 63.867188 189.714844 63.925781 187.570312 C 63.984375 185.433594 64.050781 182.847656 64.121094 179.8125 C 64.203125 176.78125 64.300781 173.25 64.417969 169.222656 C 64.535156 165.207031 64.664062 160.597656 64.804688 155.394531 C 64.207031 155.464844 63.621094 155.503906 63.050781 155.515625 C 62.476562 155.527344 61.894531 155.535156 61.296875 155.535156 C 60.429688 155.535156 59.457031 155.511719 58.367188 155.464844 C 57.292969 155.417969 56.171875 155.332031 55 155.203125 L 63.664062 149.722656 C 65.441406 149.980469 67.117188 150.148438 68.695312 150.230469 C 70.273438 150.324219 71.578125 150.371094 72.605469 150.371094 C 73.738281 150.371094 74.839844 150.328125 75.902344 150.246094 C 76.964844 150.167969 78.011719 150.078125 79.042969 149.984375 C 80.070312 149.878906 81.085938 149.785156 82.09375 149.707031 C 83.097656 149.625 84.113281 149.582031 85.144531 149.582031 C 87.152344 149.582031 89.082031 149.808594 90.929688 150.265625 C 92.777344 150.71875 94.394531 151.433594 95.785156 152.402344 C 97.175781 153.371094 98.292969 154.628906 99.136719 156.183594 C 99.964844 157.734375 100.378906 159.601562 100.378906 161.785156 C 100.378906 162.949219 100.1875 164.148438 99.800781 165.371094 C 99.40625 166.585938 98.761719 167.804688 97.875 169.03125 C 96.984375 170.246094 95.804688 171.453125 94.332031 172.652344 C 92.859375 173.84375 91.039062 174.988281 88.878906 176.085938 C 91.132812 178.1875 93.191406 180.066406 95.050781 181.722656 C 96.910156 183.390625 98.59375 184.871094 100.101562 186.167969 C 101.609375 187.464844 102.945312 188.582031 104.117188 189.527344 C 105.273438 190.484375 106.296875 191.304688 107.183594 191.980469 C 109.242188 193.578125 110.832031 194.675781 111.953125 195.269531 C 112.527344 195.539062 113.128906 195.777344 113.757812 195.988281 C 114.308594 196.164062 114.933594 196.320312 115.636719 196.460938 C 116.335938 196.601562 117.074219 196.671875 117.84375 196.671875 C 118.324219 196.671875 118.792969 196.628906 119.246094 196.546875 C 119.703125 196.46875 120.160156 196.332031 120.613281 196.144531 C 119.515625 196.996094 118.445312 197.796875 117.40625 198.542969 C 116.355469 199.300781 115.296875 199.957031 114.234375 200.503906 C 113.167969 201.066406 112.09375 201.515625 111.007812 201.851562 C 109.917969 202.179688 108.808594 202.34375 107.675781 202.34375 C 107.03125 202.34375 106.414062 202.277344 105.816406 202.148438 C 105.230469 202.023438 104.628906 201.824219 104.011719 201.554688 C 103.390625 201.285156 102.765625 200.929688 102.132812 200.488281 C 101.515625 200.054688 100.847656 199.523438 100.136719 198.894531 C 99.199219 198.113281 97.820312 196.917969 95.996094 195.304688 C 95.214844 194.617188 94.300781 193.792969 93.261719 192.835938 C 92.210938 191.878906 91 190.773438 89.632812 189.511719 C 88.253906 188.261719 86.703125 186.84375 84.984375 185.257812 C 83.253906 183.683594 81.34375 181.902344 79.25 179.917969 C 80.886719 179.300781 82.4375 178.558594 83.898438 177.695312 C 85.359375 176.820312 86.632812 175.828125 87.71875 174.71875 C 88.808594 173.597656 89.667969 172.351562 90.296875 170.972656 C 90.917969 169.597656 91.226562 168.074219 91.226562 166.40625 C 91.226562 164.398438 90.820312 162.640625 90 161.136719 C 89.183594 159.628906 88.113281 158.382812 86.792969 157.390625 C 85.480469 156.386719 83.996094 155.632812 82.335938 155.132812 C 80.667969 154.628906 78.984375 154.378906 77.289062 154.378906 C 75.921875 154.378906 74.609375 154.441406 73.359375 154.570312 L 72.027344 196.144531 C 72.554688 196.542969 73.179688 196.816406 73.902344 196.96875 C 74.640625 197.132812 75.394531 197.214844 76.164062 197.214844 C 76.9375 197.214844 77.703125 197.160156 78.460938 197.054688 C 79.210938 196.949219 79.882812 196.835938 80.480469 196.707031 C 81.191406 196.542969 81.851562 196.355469 82.460938 196.144531 Z M 166.203125 194.816406 C 165.246094 195.773438 164.210938 196.648438 163.101562 197.441406 C 161.992188 198.222656 160.878906 198.898438 159.769531 199.472656 C 158.648438 200.042969 157.558594 200.5 156.507812 200.835938 C 155.457031 201.175781 154.496094 201.367188 153.632812 201.414062 C 153.152344 201.460938 152.535156 201.457031 151.773438 201.398438 C 151.027344 201.339844 150.300781 201.140625 149.597656 200.800781 C 148.910156 200.464844 148.3125 199.925781 147.8125 199.191406 C 147.308594 198.46875 147.058594 197.429688 147.058594 196.074219 L 147.058594 192.015625 C 145.804688 193.25 144.480469 194.429688 143.078125 195.550781 C 141.683594 196.683594 140.253906 197.6875 138.78125 198.5625 C 137.308594 199.4375 135.816406 200.132812 134.308594 200.644531 C 132.800781 201.15625 131.316406 201.414062 129.855469 201.414062 C 127.984375 201.414062 126.34375 201 124.929688 200.171875 C 123.515625 199.34375 122.328125 198.265625 121.367188 196.933594 C 120.410156 195.613281 119.691406 194.132812 119.210938 192.488281 C 118.734375 190.855469 118.492188 189.226562 118.492188 187.601562 C 118.492188 186.402344 118.585938 185.210938 118.773438 184.03125 C 118.949219 182.855469 119.183594 181.746094 119.476562 180.707031 C 119.757812 179.65625 120.082031 178.707031 120.457031 177.851562 C 120.84375 177.011719 121.242188 176.320312 121.648438 175.769531 C 122.398438 174.742188 123.355469 173.75 124.523438 172.792969 C 125.683594 171.835938 126.957031 170.9375 128.347656 170.097656 C 129.726562 169.257812 131.195312 168.492188 132.75 167.804688 C 134.292969 167.128906 135.835938 166.539062 137.378906 166.039062 C 138.921875 165.535156 140.421875 165.144531 141.882812 164.863281 C 143.34375 164.597656 144.691406 164.460938 145.917969 164.460938 C 147.203125 164.460938 148.710938 164.527344 150.441406 164.65625 C 152.183594 164.769531 154.160156 165.027344 156.367188 165.425781 C 156.273438 168.039062 156.199219 170.347656 156.140625 172.355469 C 156.070312 174.363281 156.011719 176.160156 155.964844 177.75 C 155.917969 179.324219 155.882812 180.765625 155.859375 182.070312 C 155.835938 183.367188 155.824219 184.628906 155.824219 185.851562 C 155.824219 187.113281 155.800781 188.34375 155.753906 189.546875 C 155.707031 190.761719 155.800781 191.84375 156.035156 192.800781 C 156.257812 193.757812 156.707031 194.535156 157.382812 195.128906 C 158.050781 195.726562 159.097656 196.023438 160.523438 196.023438 C 161.363281 196.023438 162.265625 195.914062 163.222656 195.691406 C 164.183594 195.46875 165.175781 195.175781 166.203125 194.816406 Z M 147.128906 170.34375 C 145.757812 169.980469 144.296875 169.726562 142.742188 169.574219 C 141.1875 169.421875 139.703125 169.347656 138.289062 169.347656 C 137.519531 169.347656 136.78125 169.371094 136.082031 169.414062 C 135.378906 169.460938 134.746094 169.519531 134.1875 169.589844 C 133.613281 169.660156 133.109375 169.742188 132.679688 169.835938 C 132.246094 169.941406 131.914062 170.0625 131.679688 170.203125 C 131.269531 170.414062 130.789062 170.910156 130.242188 171.691406 C 129.691406 172.472656 129.164062 173.449219 128.664062 174.613281 C 128.160156 175.78125 127.734375 177.09375 127.382812 178.554688 C 127.03125 180.011719 126.855469 181.511719 126.855469 183.050781 C 126.855469 184.535156 127.074219 186.023438 127.507812 187.515625 C 127.9375 189.007812 128.570312 190.351562 129.398438 191.542969 C 130.230469 192.722656 131.257812 193.683594 132.484375 194.429688 C 133.703125 195.164062 135.097656 195.535156 136.675781 195.535156 C 138.160156 195.535156 139.476562 195.292969 140.621094 194.816406 C 141.753906 194.335938 142.75 193.683594 143.601562 192.855469 C 144.445312 192.027344 145.144531 191.050781 145.707031 189.929688 C 146.269531 188.8125 146.71875 187.601562 147.058594 186.308594 C 147.058594 185.351562 147.058594 184.328125 147.058594 183.246094 C 147.058594 182.160156 147.058594 180.96875 147.058594 179.671875 C 147.058594 178.378906 147.0625 176.960938 147.074219 175.421875 C 147.085938 173.878906 147.105469 172.1875 147.128906 170.34375 Z M 204.621094 167.875 C 204.621094 168.878906 204.492188 170.027344 204.238281 171.324219 C 203.96875 172.632812 203.488281 174.070312 202.796875 175.648438 C 202.097656 177.210938 201.144531 178.914062 199.941406 180.757812 C 198.726562 182.613281 197.160156 184.574219 195.242188 186.640625 C 192.796875 189.3125 190.285156 191.992188 187.703125 194.675781 C 185.128906 197.371094 182.664062 199.960938 180.300781 202.449219 C 177.953125 204.933594 175.820312 207.261719 173.902344 209.433594 C 171.984375 211.613281 170.464844 213.535156 169.34375 215.191406 C 168.234375 216.859375 167.375 218.332031 166.765625 219.601562 C 166.15625 220.886719 165.730469 221.996094 165.484375 222.929688 C 165.226562 223.863281 165.101562 224.65625 165.101562 225.308594 C 165.101562 225.972656 165.15625 226.523438 165.273438 226.953125 C 165.34375 227.234375 165.351562 227.492188 165.292969 227.726562 C 165.234375 227.96875 165.136719 228.179688 164.996094 228.355469 C 164.867188 228.542969 164.695312 228.6875 164.484375 228.792969 C 164.277344 228.886719 164.070312 228.933594 163.871094 228.933594 C 163.589844 228.933594 163.316406 228.804688 163.046875 228.546875 C 162.78125 228.289062 162.5625 227.863281 162.398438 227.269531 C 162.234375 226.558594 162.316406 225.605469 162.644531 224.417969 C 162.960938 223.214844 163.464844 221.914062 164.152344 220.511719 C 164.832031 219.113281 165.660156 217.664062 166.644531 216.171875 C 167.625 214.679688 168.722656 213.261719 169.9375 211.917969 C 171.421875 210.273438 173.113281 208.386719 175.007812 206.265625 C 176.898438 204.128906 178.851562 201.886719 180.863281 199.542969 C 180.605469 197.894531 180.253906 196.011719 179.8125 193.886719 C 179.367188 191.753906 178.839844 189.570312 178.234375 187.339844 C 177.625 185.125 176.929688 182.941406 176.144531 180.792969 C 175.363281 178.660156 174.492188 176.75 173.535156 175.070312 C 172.574219 173.402344 171.535156 172.054688 170.414062 171.027344 C 169.289062 170 168.09375 169.484375 166.816406 169.484375 C 166.292969 169.484375 165.753906 169.585938 165.203125 169.785156 C 164.65625 169.96875 164.09375 170.222656 163.523438 170.535156 C 164.1875 169.90625 164.941406 169.1875 165.785156 168.382812 C 166.636719 167.589844 167.53125 166.847656 168.464844 166.160156 C 169.402344 165.484375 170.367188 164.910156 171.359375 164.445312 C 172.351562 163.976562 173.328125 163.746094 174.289062 163.746094 C 174.941406 163.746094 175.5625 163.914062 176.144531 164.25 C 176.730469 164.589844 177.273438 165.152344 177.777344 165.933594 C 178.257812 166.703125 178.921875 167.835938 179.777344 169.328125 C 180.628906 170.820312 181.554688 172.632812 182.546875 174.753906 C 183.539062 176.867188 184.523438 179.277344 185.492188 181.984375 C 186.460938 184.679688 187.304688 187.613281 188.015625 190.789062 C 189.246094 189.191406 190.382812 187.621094 191.4375 186.082031 C 192.488281 184.539062 193.40625 183.074219 194.1875 181.6875 C 194.984375 180.296875 195.605469 179.007812 196.046875 177.816406 C 196.492188 176.617188 196.714844 175.546875 196.714844 174.613281 C 196.714844 173.773438 196.625 173.015625 196.449219 172.339844 C 196.289062 171.664062 196.042969 171.101562 195.714844 170.660156 C 195.398438 170.214844 194.988281 169.90625 194.488281 169.730469 C 193.984375 169.542969 193.410156 169.507812 192.769531 169.625 C 193.292969 168.984375 193.910156 168.277344 194.609375 167.507812 C 195.300781 166.726562 196.042969 166.003906 196.835938 165.335938 C 197.621094 164.660156 198.4375 164.101562 199.292969 163.65625 C 200.15625 163.214844 201.023438 162.992188 201.886719 162.992188 C 202.507812 162.992188 202.996094 163.160156 203.359375 163.5 C 203.722656 163.835938 203.996094 164.257812 204.183594 164.757812 C 204.359375 165.261719 204.476562 165.796875 204.535156 166.371094 C 204.59375 166.941406 204.621094 167.445312 204.621094 167.875 Z M 258.015625 194.816406 C 257.054688 195.773438 256.019531 196.648438 254.910156 197.441406 C 253.8125 198.222656 252.703125 198.898438 251.578125 199.472656 C 250.457031 200.042969 249.371094 200.5 248.316406 200.835938 C 247.265625 201.175781 246.308594 201.367188 245.441406 201.414062 C 244.960938 201.460938 244.347656 201.457031 243.601562 201.398438 C 242.839844 201.339844 242.117188 201.140625 241.425781 200.800781 C 240.726562 200.464844 240.125 199.925781 239.621094 199.191406 C 239.117188 198.46875 238.867188 197.429688 238.867188 196.074219 L 238.867188 192.015625 C 237.617188 193.25 236.296875 194.429688 234.902344 195.550781 C 233.511719 196.683594 232.082031 197.6875 230.609375 198.5625 C 229.136719 199.4375 227.644531 200.132812 226.136719 200.644531 C 224.628906 201.15625 223.144531 201.414062 221.683594 201.414062 C 219.8125 201.414062 218.171875 201 216.753906 200.171875 C 215.328125 199.34375 214.136719 198.265625 213.179688 196.933594 C 212.21875 195.613281 211.5 194.132812 211.023438 192.488281 C 210.542969 190.855469 210.304688 189.226562 210.304688 187.601562 C 210.304688 186.402344 210.398438 185.210938 210.582031 184.03125 C 210.769531 182.855469 211.003906 181.746094 211.285156 180.707031 C 211.566406 179.65625 211.898438 178.707031 212.285156 177.851562 C 212.660156 177.011719 213.050781 176.320312 213.460938 175.769531 C 214.207031 174.742188 215.167969 173.75 216.335938 172.792969 C 217.503906 171.835938 218.777344 170.9375 220.15625 170.097656 C 221.535156 169.257812 223.003906 168.492188 224.558594 167.804688 C 226.113281 167.128906 227.65625 166.539062 229.1875 166.039062 C 230.730469 165.535156 232.234375 165.144531 233.695312 164.863281 C 235.15625 164.597656 236.503906 164.460938 237.746094 164.460938 C 239.019531 164.460938 240.527344 164.527344 242.269531 164.65625 C 244 164.769531 245.972656 165.027344 248.195312 165.425781 C 248.101562 168.039062 248.019531 170.347656 247.949219 172.355469 C 247.878906 174.363281 247.820312 176.160156 247.773438 177.75 C 247.726562 179.324219 247.691406 180.765625 247.667969 182.070312 C 247.644531 183.367188 247.632812 184.628906 247.632812 185.851562 C 247.632812 187.113281 247.609375 188.34375 247.5625 189.546875 C 247.515625 190.761719 247.609375 191.84375 247.84375 192.800781 C 248.078125 193.757812 248.527344 194.535156 249.195312 195.128906 C 249.871094 195.726562 250.917969 196.023438 252.332031 196.023438 C 253.175781 196.023438 254.074219 195.914062 255.035156 195.691406 C 255.992188 195.46875 256.984375 195.175781 258.015625 194.816406 Z M 238.9375 170.34375 C 237.570312 169.980469 236.109375 169.726562 234.554688 169.574219 C 233 169.421875 231.515625 169.347656 230.097656 169.347656 C 229.328125 169.347656 228.589844 169.371094 227.890625 169.414062 C 227.199219 169.460938 226.570312 169.519531 225.996094 169.589844 C 225.421875 169.660156 224.921875 169.742188 224.488281 169.835938 C 224.054688 169.941406 223.722656 170.0625 223.488281 170.203125 C 223.078125 170.414062 222.601562 170.910156 222.050781 171.691406 C 221.5 172.472656 220.976562 173.449219 220.472656 174.613281 C 219.96875 175.78125 219.542969 177.09375 219.191406 178.554688 C 218.84375 180.011719 218.667969 181.511719 218.667969 183.050781 C 218.667969 184.535156 218.882812 186.023438 219.316406 187.515625 C 219.75 189.007812 220.378906 190.351562 221.210938 191.542969 C 222.050781 192.722656 223.078125 193.683594 224.296875 194.429688 C 225.523438 195.164062 226.921875 195.535156 228.484375 195.535156 C 229.972656 195.535156 231.285156 195.292969 232.429688 194.816406 C 233.578125 194.335938 234.570312 193.683594 235.414062 192.855469 C 236.253906 192.027344 236.957031 191.050781 237.515625 189.929688 C 238.078125 188.8125 238.527344 187.601562 238.867188 186.308594 C 238.867188 185.351562 238.867188 184.328125 238.867188 183.246094 C 238.867188 182.160156 238.867188 180.96875 238.867188 179.671875 C 238.867188 178.378906 238.871094 176.960938 238.882812 175.421875 C 238.894531 173.878906 238.914062 172.1875 238.9375 170.34375 Z M 292.871094 192.261719 C 291.09375 193.695312 289.34375 194.980469 287.613281 196.109375 C 285.871094 197.253906 284.179688 198.210938 282.542969 198.980469 C 280.917969 199.761719 279.359375 200.339844 277.863281 200.714844 C 276.367188 201.089844 274.96875 201.234375 273.671875 201.152344 C 272.339844 201.058594 271.125 200.738281 270.023438 200.191406 C 268.914062 199.640625 267.960938 198.816406 267.167969 197.722656 C 266.359375 196.625 265.742188 195.222656 265.308594 193.519531 C 264.875 191.816406 264.695312 189.75 264.765625 187.324219 C 264.789062 186.027344 264.835938 184.492188 264.90625 182.71875 C 264.953125 181.191406 264.992188 179.300781 265.027344 177.046875 C 265.074219 174.785156 265.121094 172.148438 265.167969 169.136719 C 264.6875 169.183594 264.105469 169.242188 263.414062 169.3125 C 262.714844 169.378906 261.960938 169.503906 261.152344 169.679688 C 260.335938 169.839844 259.492188 170.070312 258.628906 170.359375 C 257.761719 170.640625 256.910156 170.996094 256.066406 171.429688 C 256.746094 170.996094 257.433594 170.554688 258.136719 170.097656 C 258.828125 169.644531 259.457031 169.222656 260.03125 168.839844 C 260.695312 168.40625 261.339844 167.972656 261.960938 167.542969 C 262.566406 167.214844 263.109375 166.632812 263.589844 165.792969 C 264.011719 165.070312 264.390625 164.03125 264.730469 162.675781 C 265.070312 161.335938 265.238281 159.527344 265.238281 157.25 C 266.839844 156.445312 268.191406 155.714844 269.289062 155.0625 C 270.375 154.398438 271.265625 153.835938 271.953125 153.382812 C 272.75 152.832031 273.386719 152.367188 273.863281 151.980469 L 273.742188 163.464844 C 274.328125 163.488281 274.90625 163.503906 275.476562 163.515625 C 276.050781 163.527344 276.554688 163.535156 276.984375 163.535156 L 278.425781 163.535156 C 280.386719 163.582031 282.246094 163.558594 284 163.464844 C 284.761719 163.441406 285.53125 163.394531 286.316406 163.324219 C 287.109375 163.265625 287.871094 163.183594 288.59375 163.078125 C 289.332031 162.972656 290.007812 162.839844 290.628906 162.675781 C 291.257812 162.523438 291.792969 162.34375 292.222656 162.132812 C 290.996094 163.359375 289.644531 164.398438 288.171875 165.25 C 286.699219 166.089844 285.164062 166.777344 283.5625 167.316406 C 281.960938 167.851562 280.324219 168.253906 278.652344 168.523438 C 276.96875 168.804688 275.308594 168.988281 273.671875 169.082031 C 273.625 172.339844 273.589844 175.535156 273.566406 178.675781 C 273.542969 181.828125 273.53125 184.929688 273.53125 187.988281 C 273.554688 188.992188 273.808594 189.9375 274.285156 190.824219 C 274.765625 191.710938 275.429688 192.488281 276.285156 193.152344 C 277.136719 193.804688 278.148438 194.332031 279.320312 194.726562 C 280.488281 195.136719 281.777344 195.339844 283.195312 195.339844 C 284.632812 195.339844 286.175781 195.09375 287.824219 194.605469 C 289.484375 194.128906 291.164062 193.34375 292.871094 192.261719 Z M 292.871094 192.261719 " fill-opacity="1" fill-rule="nonzero"/></g><g clip-path="url(#fc52505d9d)"><path fill="#9c8b58" d="M 342.753906 197.3125 C 342.753906 197.621094 342.691406 197.917969 342.574219 198.203125 C 342.453125 198.484375 342.285156 198.738281 342.066406 198.957031 C 341.847656 199.171875 341.597656 199.339844 341.3125 199.457031 C 341.023438 199.578125 340.726562 199.636719 340.417969 199.636719 L 311.777344 199.636719 C 311.46875 199.636719 311.171875 199.578125 310.882812 199.457031 C 310.597656 199.339844 310.347656 199.171875 310.128906 198.957031 C 309.910156 198.738281 309.738281 198.484375 309.621094 198.203125 C 309.503906 197.917969 309.441406 197.621094 309.441406 197.3125 L 309.441406 179.332031 L 307.773438 179.332031 L 307.773438 197.3125 C 307.773438 197.574219 307.800781 197.832031 307.851562 198.089844 C 307.902344 198.347656 307.980469 198.59375 308.082031 198.835938 C 308.183594 199.078125 308.304688 199.308594 308.453125 199.527344 C 308.597656 199.742188 308.765625 199.945312 308.949219 200.128906 C 309.136719 200.3125 309.335938 200.480469 309.554688 200.625 C 309.773438 200.769531 310.003906 200.890625 310.246094 200.992188 C 310.488281 201.09375 310.738281 201.167969 310.996094 201.21875 C 311.253906 201.269531 311.515625 201.292969 311.777344 201.292969 L 340.417969 201.292969 C 340.679688 201.292969 340.941406 201.269531 341.199219 201.21875 C 341.453125 201.167969 341.703125 201.09375 341.949219 200.992188 C 342.191406 200.890625 342.421875 200.769531 342.636719 200.625 C 342.855469 200.480469 343.058594 200.3125 343.246094 200.128906 C 343.429688 199.945312 343.597656 199.742188 343.742188 199.527344 C 343.886719 199.308594 344.011719 199.078125 344.113281 198.835938 C 344.214844 198.59375 344.289062 198.347656 344.34375 198.089844 C 344.394531 197.832031 344.421875 197.574219 344.421875 197.3125 L 344.421875 179.332031 L 342.753906 179.332031 Z M 342.753906 197.3125 " fill-opacity="1" fill-rule="nonzero"/></g><g clip-path="url(#46eb4cdd86)"><path fill="#9c8b58" d="M 326.097656 155.195312 L 299.660156 176.671875 L 299.59375 176.722656 L 300.648438 178.007812 L 326.097656 157.335938 L 351.546875 178.007812 L 352.601562 176.722656 Z M 326.097656 155.195312 " fill-opacity="1" fill-rule="nonzero"/></g><g clip-path="url(#fc8b9fa333)"><path fill="#9c8b58" d="M 322.960938 211.191406 C 322.960938 211.191406 326.207031 198.535156 319.390625 191.925781 C 312.574219 185.316406 307.175781 181.941406 304.976562 182.210938 C 302.59375 182.503906 308.304688 186.863281 309.089844 190.863281 C 304.269531 188.824219 301.371094 185.476562 299.960938 181.558594 C 298.550781 177.640625 294.78125 170.855469 293.144531 173.148438 C 292.136719 174.558594 294.238281 174.863281 294.945312 179.84375 C 295.65625 184.820312 298.003906 194.78125 307.484375 198.457031 C 316.960938 202.125 323.347656 208.820312 322.960938 211.191406 Z M 322.960938 211.191406 " fill-opacity="1" fill-rule="nonzero"/></g><g clip-path="url(#47ef6b1ce4)"><path fill="#9c8b58" d="M 329.234375 211.191406 C 329.234375 211.191406 325.984375 198.535156 332.800781 191.925781 C 339.621094 185.316406 345.019531 181.941406 347.21875 182.210938 C 349.597656 182.503906 343.886719 186.863281 343.101562 190.863281 C 347.925781 188.824219 350.820312 185.476562 352.230469 181.558594 C 353.640625 177.640625 357.410156 170.855469 359.046875 173.148438 C 360.054688 174.558594 357.953125 174.863281 357.246094 179.84375 C 356.539062 184.820312 354.1875 194.78125 344.710938 198.457031 C 335.230469 202.125 328.84375 208.820312 329.234375 211.191406 Z M 329.234375 211.191406 " fill-opacity="1" fill-rule="nonzero"/></g></svg>